<svg id="Capa_1" data-name="Capa 1" xmlns="http://www.w3.org/2000/svg" viewBox="0 0 708.66 708.66"><path d="M588.52,120C459.34-9.2,249.15-9.2,120,120S-9.21,459.35,120,588.53a332.59,332.59,0,0,0,244.61,96.88l-2.23-71.63c-3.45.13-6.91.22-10.4.22-144.49,0-262-117.55-262-262s117.56-262,262-262S614,207.46,614,352a265.53,265.53,0,0,1-1.4,27.19L684.05,386A330.43,330.43,0,0,0,588.52,120Z" style="fill:#fff"/><path d="M352,114.76C221,114.76,114.76,221,114.76,352S221,589.14,352,589.14,589.14,483,589.14,352,483,114.76,352,114.76Zm20.11,79.48a27.56,27.56,0,1,1,53.22,14.2A27.64,27.64,0,0,1,423,213.8a27.33,27.33,0,0,1-50.9-19.56Zm87,80.19a27.34,27.34,0,1,1-34.19,18.07A27.35,27.35,0,0,1,459.06,274.43ZM200.59,219.5a27.43,27.43,0,0,1,30.73-16.66l.31.07a44.16,44.16,0,0,0,30.07-4.06l17.21-9.2a43.51,43.51,0,0,0,20-22.55c.08-.21.16-.41.25-.62A27.34,27.34,0,1,1,319,203.88l-.3-.06a44.15,44.15,0,0,0-30.07,4.06l-17.21,9.2a43.45,43.45,0,0,0-20,22.54c-.08.21-.16.42-.25.63a27.35,27.35,0,0,1-50.6-20.75ZM326.89,261a27.34,27.34,0,1,1-18-34.22A27.33,27.33,0,0,1,326.89,261Zm-152.55,35.3a29.91,29.91,0,1,1,14.56,32.94A27.35,27.35,0,0,1,174.34,296.33ZM256,483.81a27.34,27.34,0,0,1-53.47-11.44c0-.1,0-.2.07-.31a44.17,44.17,0,0,0-4-30.08l-9.16-17.23A43.46,43.46,0,0,0,167,404.7l-.62-.25a27.34,27.34,0,1,1,37.45-19.78c0,.1-.05.2-.07.3a44.16,44.16,0,0,0,4,30.08l9.16,17.23a43.38,43.38,0,0,0,22.5,20.05l.62.26A27.41,27.41,0,0,1,256,483.81Zm-11.41-54.7a27.34,27.34,0,1,1,34.26-17.92A27.34,27.34,0,0,1,244.62,429.11Zm87.08,82.81a30.4,30.4,0,1,1,.57-13.79A27.33,27.33,0,0,1,331.7,511.92ZM321.13,355.35a29.32,29.32,0,1,1,29.32,29.32A29.32,29.32,0,0,1,321.13,355.35ZM345,425.7,347.6,398a44.11,44.11,0,1,0-39.85-42.53l-27.78.86a71.9,71.9,0,1,1,65,69.33Zm84.9,33.18a27.34,27.34,0,1,1-18.15-34.14A27.35,27.35,0,0,1,429.85,458.88Zm74.2,25a27.42,27.42,0,0,1-30.65,16.79l-.3-.06a44.2,44.2,0,0,0-30.06,4.2l-17.16,9.28A43.46,43.46,0,0,0,406,536.69c-.08.2-.16.41-.25.62a27.34,27.34,0,1,1-20-37.31l.31.06a44.12,44.12,0,0,0,30.05-4.2l17.17-9.28A43.38,43.38,0,0,0,453.11,464c.08-.21.16-.42.25-.63a27.34,27.34,0,0,1,50.69,20.52Zm25.9-77a28.44,28.44,0,1,1-20.11-35.19,27.64,27.64,0,0,1,5.39,2.32A27.33,27.33,0,0,1,530,406.88ZM516.8,349.37a27.42,27.42,0,0,1-16.73-30.69c0-.1.05-.2.07-.3A44.19,44.19,0,0,0,496,288.32l-9.24-17.19a43.45,43.45,0,0,0-22.59-19.95l-.62-.25a27.34,27.34,0,1,1,37.35-20l-.06.3A44.07,44.07,0,0,0,505,261.34l9.24,17.19a43.41,43.41,0,0,0,22.59,20l.62.25a27.34,27.34,0,0,1-20.63,50.64Z" style="fill:#fff"/></svg>