<svg id="Layer_1" data-name="Layer 1" xmlns="http://www.w3.org/2000/svg" viewBox="0 0 708.66 708.66"><path d="M317.33,162.06A155.41,155.41,0,1,0,472.75,317.47,155.41,155.41,0,0,0,317.33,162.06Zm0,14.8a140.42,140.42,0,0,1,114.83,59.72l-18.5,18.5a29.29,29.29,0,0,0-14.92-4.22,29.61,29.61,0,0,0-29.6,29.61,29.27,29.27,0,0,0,4.2,14.94l-48.46,48.46a28.69,28.69,0,0,0-29.89,0l-33.66-33.66a29.24,29.24,0,0,0,4.2-14.94,29.54,29.54,0,0,0-58.15-7.4H179.92A140.8,140.8,0,0,1,317.33,176.86Zm66.61,103.61a14.8,14.8,0,1,1,14.8,14.8A14.8,14.8,0,0,1,383.94,280.47Zm-74,74a14.81,14.81,0,1,1-14.8,14.8A14.81,14.81,0,0,1,309.93,354.47Zm-74-44.4a14.8,14.8,0,1,1,14.8-14.8A14.8,14.8,0,0,1,235.93,310.07Zm81.4,148A140.53,140.53,0,0,1,177.51,302.67h29.87a29.59,29.59,0,0,0,28.55,22.2,29.24,29.24,0,0,0,14.94-4.2l33.66,33.66a29.27,29.27,0,0,0-4.2,14.94,29.61,29.61,0,1,0,59.21,0,29.27,29.27,0,0,0-4.2-14.94l48.46-48.46a29.24,29.24,0,0,0,14.94,4.2,29.61,29.61,0,0,0,29.61-29.6,29.31,29.31,0,0,0-4.2-15l16.13-16.12A140.48,140.48,0,0,1,317.33,458.08Z" style="fill:#fff"/><path d="M502.35,147.25a29.61,29.61,0,0,0-29.6,29.61A29.17,29.17,0,0,0,477,191.8l-13,13C401.88,124,286.15,108.55,205.12,170.23c-80.1,61-96.66,175.81-37,256.88a185,185,0,0,0,249.6,45.64l22.33,22.34,10.47,10.46,59,59c15.38,15.39,40.86,15.68,55.94,0a38.8,38.8,0,0,0-.53-54.33l-59.57-59.58L495,440.22l-22.33-22.34a184.43,184.43,0,0,0,0-200.82l14.8-14.8a29.24,29.24,0,0,0,14.93,4.2,29.59,29.59,0,0,0,28.55-22.2H569a7.4,7.4,0,0,0,7.4-7.4h0a7.4,7.4,0,0,0-7.4-7.4H530.9A29.6,29.6,0,0,0,502.35,147.25Zm52.18,373.47A24,24,0,0,1,521,555.05l-.38-.39L461,495.09,495,461.15ZM464,430.2l20.49,20.48-33.94,33.94-20.49-20.48c1.05-.8,2-1.68,3.05-2.5s2.22-1.81,3.32-2.74c1.62-1.36,3.22-2.73,4.79-4.15.81-.74,1.58-1.48,2.37-2.22q4.55-4.26,8.81-8.81c.74-.79,1.48-1.56,2.22-2.37,1.42-1.57,2.79-3.17,4.16-4.79q1.38-1.63,2.73-3.32C462.32,432.22,463.2,431.24,464,430.2Zm-8.21-13.89c-2.33,3.25-4.74,6.44-7.28,9.51-.74.9-1.53,1.76-2.29,2.65q-3.41,3.94-7,7.66-1.57,1.64-3.2,3.21-3.71,3.62-7.67,7c-.88.74-1.75,1.55-2.64,2.3-3.07,2.54-6.26,4.94-9.52,7.27a170.46,170.46,0,1,1,39.62-39.61Zm46.56-224.65a14.8,14.8,0,1,1,14.8-14.8A14.8,14.8,0,0,1,502.35,191.66Z" style="fill:#fff"/><circle cx="354.33" cy="354.33" r="354.33" style="fill:#09c"/><path d="M334.53,251.47v-38.6a19.86,19.86,0,0,0-7.65-15.66l.73-3.66a1.35,1.35,0,0,0-.29-1.14,1.37,1.37,0,0,0-1.06-.51H293.18a1.37,1.37,0,0,0-1.06.51,1.39,1.39,0,0,0-.29,1.14l.73,3.66a19.86,19.86,0,0,0-7.65,15.66v38.6A19.25,19.25,0,0,0,279.4,265v11a1.38,1.38,0,0,0,1.38,1.38h57.88A1.38,1.38,0,0,0,340,276V265a19.23,19.23,0,0,0-5.51-13.48Zm-9.95-56.81-2.21,11h-25.3l-2.21-11Zm-31.4,5.63,1.41,7a1.37,1.37,0,0,0,1.35,1.11H323.5a1.36,1.36,0,0,0,1.35-1.11l1.41-7a17.12,17.12,0,0,1,5.51,12.58v36.26a19.22,19.22,0,0,0-11-3.48h-1.38V243A19.28,19.28,0,0,0,329,226.36v-8.27a1.38,1.38,0,0,0-1.38-1.38h-2.2a23.88,23.88,0,0,1-14.86-5.21,1.38,1.38,0,0,0-1.72,0A23.85,23.85,0,0,1,294,216.71h-2.2a1.38,1.38,0,0,0-1.38,1.38v8.27A19.29,19.29,0,0,0,300.07,243v2.61H298.7a19.25,19.25,0,0,0-11,3.48V212.87a17.12,17.12,0,0,1,5.51-12.58Zm5.52,48.12h1.82l.36.9a9.49,9.49,0,0,0,6,5.55l-.75.76a4.35,4.35,0,0,1-6-.36,5.19,5.19,0,0,1-1.36-3.53Zm27.56-22H293.18v-6.89H294a26.65,26.65,0,0,0,15.71-5.16,26.68,26.68,0,0,0,15.72,5.16h.82Zm-.25,2.75a16.52,16.52,0,0,1-32.58,0Zm-16.29,16.54a19.22,19.22,0,0,0,6.89-1.29v2.4l-.61,1.53a6.76,6.76,0,0,1-12.56,0l-.61-1.53v-2.4a19.22,19.22,0,0,0,6.89,1.29Zm8.84,3.66.36-.9h1.83v3.32a5.2,5.2,0,0,1-1.37,3.53,4.32,4.32,0,0,1-5.95.44l-.83-.84a9.45,9.45,0,0,0,6-5.55ZM282.16,265a16.54,16.54,0,0,1,13.78-16.29v3.07a7.85,7.85,0,0,0,2.12,5.42,7.09,7.09,0,0,0,5.18,2.28,7.28,7.28,0,0,0,4.73-1.79l.37-.38v17.33H293.18v-8.27h-2.75v8.27h-8.27Zm55.12,9.64H329v-8.27h-2.76v8.27H311.1V257.26l.46.46a7.07,7.07,0,0,0,9.83-.57,7.9,7.9,0,0,0,2.12-5.42v-3.07A16.55,16.55,0,0,1,337.28,265Zm0,0" style="fill:#fff"/><path d="M338.66,278.05H280.78A2.08,2.08,0,0,1,278.7,276V265a19.85,19.85,0,0,1,5.52-13.76V212.87a20.46,20.46,0,0,1,7.58-15.94l-.65-3.24a2.09,2.09,0,0,1,2-2.49h33.08a2.08,2.08,0,0,1,1.61.77,2.05,2.05,0,0,1,.42,1.72l-.64,3.24a20.48,20.48,0,0,1,7.58,15.94v38.32A19.89,19.89,0,0,1,340.74,265v11A2.08,2.08,0,0,1,338.66,278.05ZM293.18,192.6a.68.68,0,0,0-.66.81l.81,4.08-.34.27a19.11,19.11,0,0,0-7.38,15.11v38.88l-.2.21a18.49,18.49,0,0,0-5.31,13v11a.67.67,0,0,0,.68.68h57.88a.67.67,0,0,0,.68-.68V265A18.45,18.45,0,0,0,334,252l-.2-.21V212.87a19.1,19.1,0,0,0-7.38-15.11l-.34-.27.82-4.07a.7.7,0,0,0-.15-.57.67.67,0,0,0-.52-.25ZM338,275.29h-9.66V267H327v8.27H310.4V255.57l1.66,1.66a6.3,6.3,0,0,0,4.12,1.51,6.41,6.41,0,0,0,4.7-2.07,7.19,7.19,0,0,0,1.93-4.94v-3.9l.81.14A17.18,17.18,0,0,1,338,265Zm-8.27-1.4h6.88V265A15.78,15.78,0,0,0,324.2,249.5v2.23a8.57,8.57,0,0,1-2.3,5.89,7.72,7.72,0,0,1-10.1,1.15v15.12h13.76v-8.26h4.15ZM309,275.29H292.49V267h-1.37v8.27h-9.66V265a17.17,17.17,0,0,1,14.36-17l.82-.14v3.9a7.15,7.15,0,0,0,1.93,4.94,6.5,6.5,0,0,0,8.95.44l1.52-1.54Zm-15.16-1.4h13.77V258.75a7.94,7.94,0,0,1-4.41,1.38,7.78,7.78,0,0,1-5.69-2.5,8.58,8.58,0,0,1-2.31-5.9V249.5A15.79,15.79,0,0,0,282.86,265v8.94h6.87v-8.26h4.15Zm22.25-16.51a4.86,4.86,0,0,1-3.15-1.15l-1.69-1.69,1.1-.35a8.72,8.72,0,0,0,5.52-5.14l.54-1.34h3v4a5.92,5.92,0,0,1-1.56,4A5.19,5.19,0,0,1,316.13,257.38Zm-2.28-2.25.08.08a3.63,3.63,0,0,0,4.94-.43,4.49,4.49,0,0,0,1.18-3.05v-2.62h-.65l-.19.46A10.21,10.21,0,0,1,313.85,255.13Zm-10.59,2.24a5.06,5.06,0,0,1-3.7-1.64,5.86,5.86,0,0,1-1.56-4v-4h3l.54,1.34a8.76,8.76,0,0,0,5.53,5.14l1.1.35-1.57,1.57A5.15,5.15,0,0,1,303.26,257.37Zm-3.87-8.26v2.62a4.49,4.49,0,0,0,1.18,3.05,3.65,3.65,0,0,0,5,.35,10.18,10.18,0,0,1-5.36-5.56l-.18-.46Zm10.33,4.13a7.43,7.43,0,0,1-6.93-4.69l-.66-1.79v-3.42l.95.37a18.43,18.43,0,0,0,13.28,0l.95-.37-.05,3.68-.61,1.53A7.43,7.43,0,0,1,309.72,253.24Zm-6.19-6.61.56,1.4a6.06,6.06,0,0,0,11.26,0l.56-1.4v-1.28a19.7,19.7,0,0,1-12.38,0Zm28.94,3.84-1.1-.77a18.48,18.48,0,0,0-10.62-3.35h-2.08v-3.71l.35-.2a18.68,18.68,0,0,0,9.3-16.08v-8.27a.68.68,0,0,0-.68-.68h-2.2A24.55,24.55,0,0,1,310.15,212a.69.69,0,0,0-.86,0A24.54,24.54,0,0,1,294,217.41H291.8a.68.68,0,0,0-.68.68v8.27a18.68,18.68,0,0,0,9.3,16.08l.35.2v3.71H298.7a18.49,18.49,0,0,0-10.63,3.35l-1.1.77v-37.6a17.9,17.9,0,0,1,5.74-13.09l.91-.85,1.65,8.27a.69.69,0,0,0,.67.54H323.5a.68.68,0,0,0,.67-.54l1.65-8.27.92.85a17.93,17.93,0,0,1,5.73,13.09ZM320.07,245h.68a19.74,19.74,0,0,1,10.32,2.9v-35a16.53,16.53,0,0,0-4.38-11.17l-1.15,5.77a2.08,2.08,0,0,1-2,1.67H295.94a2.09,2.09,0,0,1-2-1.67l-1.15-5.76a16.49,16.49,0,0,0-4.38,11.16v35A19.77,19.77,0,0,1,298.7,245h.68v-1.51a20.07,20.07,0,0,1-9.65-17.08v-8.27A2.08,2.08,0,0,1,291.8,216H294A23.08,23.08,0,0,0,308.42,211a2.09,2.09,0,0,1,2.6,0A23.09,23.09,0,0,0,325.44,216h2.2a2.08,2.08,0,0,1,2.07,2.08v8.27a20.06,20.06,0,0,1-9.64,17.08Zm-10.35-1.36a17.18,17.18,0,0,1-17-14.36l-.13-.81h34.23l-.14.81A17.18,17.18,0,0,1,309.72,243.59Zm-15.44-13.78a15.82,15.82,0,0,0,30.88,0ZM327,227.05H292.49v-8.28H294a26,26,0,0,0,15.3-5l.41-.3.41.3a26,26,0,0,0,15.31,5H327Zm-33.08-1.39h31.68v-5.5h-.12a27.48,27.48,0,0,1-15.72-5,27.47,27.47,0,0,1-15.71,5h-.13Zm29.06-19.28H296.5L294,194h31.42ZM297.64,205H321.8l1.93-9.63h-28Z" style="fill:#fff"/><path d="M308.34,204.31h2.76v-2.76h2.76v-2.76H311.1V196h-2.76v2.75h-2.75v2.76h2.75Zm0,0" style="fill:#fff"/><path d="M311.8,205h-4.15v-2.75h-2.76V198.1h2.76v-2.76h4.15v2.76h2.75v4.15H311.8ZM309,203.61h1.36v-2.76h2.76v-1.36H310.4v-2.75H309v2.75h-2.76v1.36H309Z" style="fill:#fff"/><path d="M406.8,214.87a1.8,1.8,0,1,0-1.8-1.8A1.81,1.81,0,0,0,406.8,214.87Z" style="fill:#fff"/><path d="M406.8,215.57a2.5,2.5,0,1,1,2.49-2.5A2.5,2.5,0,0,1,406.8,215.57Zm0-3.59a1.1,1.1,0,1,0,1.1,1.09A1.1,1.1,0,0,0,406.8,212Z" style="fill:#fff"/><path d="M423,244.86h-5.38v-5.39a1.8,1.8,0,0,0-3.6,0v5.39H408.6a1.8,1.8,0,1,0,0,3.59H414v5.39a1.8,1.8,0,0,0,3.6,0v-5.39H423a1.8,1.8,0,1,0,0-3.59Z" style="fill:#fff"/><path d="M415.78,256.33a2.49,2.49,0,0,1-2.49-2.49v-4.69H408.6a2.5,2.5,0,1,1,0-5h4.69v-4.69a2.49,2.49,0,1,1,5,0v4.69H423a2.5,2.5,0,1,1,0,5h-4.69v4.69A2.49,2.49,0,0,1,415.78,256.33Zm-7.18-10.77a1.1,1.1,0,1,0,0,2.19h6.08v6.09a1.1,1.1,0,0,0,2.2,0v-6.09H423a1.1,1.1,0,1,0,0-2.19h-6.08v-6.09a1.1,1.1,0,0,0-2.2,0v6.09Z" style="fill:#fff"/><path d="M451.81,241.22l-7.3,4.21v-15.6a9,9,0,0,0-1.79-5.38l-9-12v-5.1a5.4,5.4,0,0,0,3.59-5.08V194a5.4,5.4,0,0,0-5.39-5.39H399.62a5.4,5.4,0,0,0-5.39,5.39v8.26a5.4,5.4,0,0,0,3.59,5.08v5.1l-9,12a9,9,0,0,0-1.79,5.38v34.78a9,9,0,0,0,9,9h28.86a14.35,14.35,0,0,0,19.51,5.08l21.78-12.57a14.37,14.37,0,0,0-14.37-24.88Zm-27.14,18h-34v-26.4h50.28V247.5L430,253.79A14.36,14.36,0,0,0,424.67,259.23ZM397.82,194a1.81,1.81,0,0,1,1.8-1.8h32.32a1.81,1.81,0,0,1,1.8,1.8v8.26a1.8,1.8,0,0,1-1.8,1.79H399.62a1.8,1.8,0,0,1-1.8-1.79Zm3.23,20.11a1.76,1.76,0,0,0,.36-1.08v-5.38h28.74v3.59H414a1.8,1.8,0,0,0,0,3.59H431l8.8,11.73a5.33,5.33,0,0,1,1,2.64h-50.2a5.33,5.33,0,0,1,1-2.64Zm-10.41,50.46V262.8h32.63a14.4,14.4,0,0,0,.08,7.2H396A5.39,5.39,0,0,1,390.64,264.61Zm52,10.95a10.78,10.78,0,0,1-10.78-18.66l9.75-5.63,10.77,18.66ZM464.38,263l-8.92,5.15-10.77-18.66,8.91-5.15A10.78,10.78,0,1,1,464.38,263Z" style="fill:#fff"/><path d="M437.27,281.28a15.1,15.1,0,0,1-12.77-7H396a9.69,9.69,0,0,1-9.68-9.68V229.83a9.8,9.8,0,0,1,1.93-5.8l8.84-11.79v-4.39a6.12,6.12,0,0,1-3.59-5.55V194a6.09,6.09,0,0,1,6.09-6.09h32.32A6.09,6.09,0,0,1,438,194v8.26a6.12,6.12,0,0,1-3.59,5.55v4.39L443.28,224a9.76,9.76,0,0,1,1.93,5.8v14.39l6.25-3.61A15.07,15.07,0,0,1,472,246.13a15.09,15.09,0,0,1-5.52,20.58l-21.77,12.57A15,15,0,0,1,437.27,281.28Zm-37.65-91.93a4.69,4.69,0,0,0-4.69,4.69v8.26a4.69,4.69,0,0,0,3.12,4.42l.47.16v5.83l-9.12,12.16a8.31,8.31,0,0,0-1.66,5v34.78A8.3,8.3,0,0,0,396,272.9h29.25l.21.34a13.71,13.71,0,0,0,18.56,4.83l21.78-12.57a13.67,13.67,0,1,0-13.67-23.68l-8.34,4.82V229.83a8.29,8.29,0,0,0-1.66-5L433,212.71v-5.83l.47-.16a4.69,4.69,0,0,0,3.12-4.42V194a4.69,4.69,0,0,0-4.69-4.69Zm37.62,88.35a11.47,11.47,0,0,1-5.76-21.4l10.35-6,11.48,19.87-10.35,6A11.45,11.45,0,0,1,437.24,277.7Zm4.08-25.48-9.14,5.28A10.08,10.08,0,1,0,442.26,275l9.14-5.28ZM424.26,270.7H396a6.09,6.09,0,0,1-6.09-6.09V262.1h34.21l-.21.87a13.81,13.81,0,0,0,.08,6.85Zm-32.92-7.2v1.11A4.69,4.69,0,0,0,396,269.3h26.44a15.09,15.09,0,0,1-.07-5.8Zm63.87,5.59-11.47-19.87,9.52-5.49a11.47,11.47,0,1,1,11.47,19.86Zm-9.57-19.36,10.08,17.45,8.31-4.79A10.08,10.08,0,1,0,454,244.93Zm-20.56,10.19H389.94V232.13h51.68v15.78l-11.24,6.48a13.71,13.71,0,0,0-5.1,5.18Zm-33.74-1.39h32.93a14.92,14.92,0,0,1,5.42-5.34l10.53-6.09V233.53H391.34Zm50.32-28.6H389.9l.08-.77a6.17,6.17,0,0,1,1.18-3l9.34-12.45a1.11,1.11,0,0,0,.22-.66V207h30.12v5H414a1.1,1.1,0,0,0,0,2.19h17.41l9,12a6.13,6.13,0,0,1,1.18,3Zm-50.14-1.39H440a4.69,4.69,0,0,0-.75-1.52l-8.59-11.45H414a2.5,2.5,0,0,1,0-5h15.47v-2.2H402.11v4.69a2.53,2.53,0,0,1-.5,1.5L392.27,227A4.69,4.69,0,0,0,391.52,228.54Zm40.42-23.75H399.62a2.5,2.5,0,0,1-2.5-2.49V194a2.5,2.5,0,0,1,2.5-2.5h32.32a2.5,2.5,0,0,1,2.5,2.5v8.26A2.5,2.5,0,0,1,431.94,204.79Zm-32.32-11.85a1.1,1.1,0,0,0-1.1,1.1v8.26a1.1,1.1,0,0,0,1.1,1.1h32.32a1.1,1.1,0,0,0,1.1-1.1V194a1.1,1.1,0,0,0-1.1-1.1Z" style="fill:#fff"/><path d="M556.32,191H532.25a17.78,17.78,0,0,0-17.76,17.77v34.12a17.79,17.79,0,0,0,11.92,16.77v3.55a2.56,2.56,0,0,0,5.11,0v-2.57h5.1v2.39a2.56,2.56,0,0,0,2.56,2.55h2.55v10.05a2.56,2.56,0,0,0,5.11,0V265.62h2.56a2.55,2.55,0,0,0,2.55-2.55v-2.39l5.12,0v2.58a2.55,2.55,0,0,0,5.1,0v-3.55a17.81,17.81,0,0,0,11.92-16.77V208.8A17.79,17.79,0,0,0,556.32,191Zm13.59,52.44a13.14,13.14,0,0,1-13.13,13.13h-7.19a2.65,2.65,0,0,0-2.65,2.65v2.48h-5.3v-2.48A2.66,2.66,0,0,0,539,256.6H531.8a13.15,13.15,0,0,1-13.14-13.13V208.06a13.15,13.15,0,0,1,13.14-13.13h25a13.14,13.14,0,0,1,13.13,13.13Zm-.93-.55" style="fill:#fff"/><path d="M544.29,278.92a3.26,3.26,0,0,1-3.26-3.25v-9.35h-1.85a3.25,3.25,0,0,1-3.25-3.26v-1.68h-3.71v1.87a3.25,3.25,0,0,1-6.5,0v-3.06a18.48,18.48,0,0,1-11.93-17.26V208.8a18.49,18.49,0,0,1,18.46-18.47h24.07a18.49,18.49,0,0,1,18.46,18.47v34.12a18.49,18.49,0,0,1-11.91,17.26v3.06a3.25,3.25,0,0,1-6.5,0v-1.87h-3.72v1.68a3.26,3.26,0,0,1-3.25,3.26h-1.86v9.35A3.26,3.26,0,0,1,544.29,278.92Zm-13.47-19,.73,0h5.77v3.08a1.86,1.86,0,0,0,1.86,1.86h3.25v10.75a1.86,1.86,0,0,0,3.71,0V264.92h3.26a1.85,1.85,0,0,0,1.85-1.86V260H557l.72,0v3.3a1.86,1.86,0,0,0,3.72,0v-4l.46-.17a17.09,17.09,0,0,0,11.45-16.11V208.8a17.09,17.09,0,0,0-17.07-17.07H532.25a17.09,17.09,0,0,0-17.07,17.07v34.12A17.11,17.11,0,0,0,526.64,259l.47.16v4a1.86,1.86,0,0,0,3.71,0Zm16.82,2.48h-6.7v-3.17a2,2,0,0,0-2-1.95H531.8A13.86,13.86,0,0,1,518,243.47V208.06a13.85,13.85,0,0,1,13.84-13.83h25a13.85,13.85,0,0,1,13.83,13.83v35.41a13.85,13.85,0,0,1-13.83,13.83h-7.19a2,2,0,0,0-2,1.95ZM542.33,261h3.91v-1.78a3.36,3.36,0,0,1,3.35-3.35h7.19a12.45,12.45,0,0,0,12.43-12.43V208.06a12.45,12.45,0,0,0-12.43-12.44h-25a12.45,12.45,0,0,0-12.44,12.44v35.41A12.45,12.45,0,0,0,531.8,255.9H539a3.35,3.35,0,0,1,3.34,3.35Z" style="fill:#fff"/><path d="M559.61,212.32H529a2.56,2.56,0,0,0-2.56,2.55v26.91a2.56,2.56,0,0,0,2.56,2.55h30.64a2.55,2.55,0,0,0,2.55-2.55V214.87a2.55,2.55,0,0,0-2.55-2.55Zm-1.11,28.14H530.08V216.19H558.5Zm-1.45-1.24" style="fill:#fff"/><path d="M559.61,245H529a3.25,3.25,0,0,1-3.25-3.25V214.87a3.25,3.25,0,0,1,3.25-3.25h30.64a3.26,3.26,0,0,1,3.25,3.25v26.91A3.26,3.26,0,0,1,559.61,245ZM529,213a1.85,1.85,0,0,0-1.86,1.85v26.91a1.86,1.86,0,0,0,1.86,1.86h30.64a1.86,1.86,0,0,0,1.85-1.86V214.87a1.85,1.85,0,0,0-1.85-1.85Zm30.22,28.14H529.38V215.5h29.81Zm-28.41-1.4h27V216.89h-27Z" style="fill:#fff"/><path d="M544.29,236.33a6.43,6.43,0,0,0,6.42-6.42c0-.53,0-2.14-2.17-5.66-.48-.77-1-1.53-1.47-2.14a3.06,3.06,0,0,0-5.57,0c-.47.61-1,1.37-1.47,2.14-2.16,3.52-2.16,5.13-2.16,5.66a6.43,6.43,0,0,0,6.42,6.42Zm0-12.08c1.56,2.6,3,5.4,3.11,6.73a3.11,3.11,0,0,1-6.22,0c.12-1.33,1.54-4.13,3.11-6.73Zm0,2.83" style="fill:#fff"/><path d="M544.29,237a7.13,7.13,0,0,1-7.12-7.12c0-.58,0-2.34,2.27-6a26.19,26.19,0,0,1,1.51-2.2,3.73,3.73,0,0,1,6.67,0,24.11,24.11,0,0,1,1.51,2.21c2.28,3.68,2.28,5.44,2.28,6A7.14,7.14,0,0,1,544.29,237Zm0-16a3,3,0,0,0-2.24,1.52,23.42,23.42,0,0,0-1.42,2.08c-2.07,3.35-2.07,4.81-2.07,5.29a5.73,5.73,0,0,0,11.45,0c0-.48,0-1.94-2.06-5.29a24.8,24.8,0,0,0-1.43-2.08A2.94,2.94,0,0,0,544.29,221Zm0,13.73a3.82,3.82,0,0,1-3.81-3.76c.17-1.89,2.3-5.59,3.21-7.1l.6-1,.59,1c.91,1.51,3,5.2,3.21,7A3.83,3.83,0,0,1,544.29,234.75Zm0-9.13a18.66,18.66,0,0,0-2.42,5.43,2.42,2.42,0,0,0,4.83-.08A19.23,19.23,0,0,0,544.29,225.62Z" style="fill:#fff"/><path d="M279.23,332.64A4.49,4.49,0,0,0,282.4,325l-17.95-18a4.51,4.51,0,0,0-3.18-1.32H220.88a4.49,4.49,0,1,0,0,9h38.54l16.63,16.64a4.48,4.48,0,0,0,3.18,1.31Zm0,0" style="fill:#fff"/><path d="M361.47,373.41a12.5,12.5,0,0,0-10.82,6.24L307,354.18a12.51,12.51,0,0,0-24.56.31l-43.94,33a12.5,12.5,0,0,0-21.63,1.13l-43.43-18.09a12.51,12.51,0,1,0-1,8.6l43.43,18.1a12.51,12.51,0,0,0,24.47-.69l43.95-32.95a12.49,12.49,0,0,0,21.3-.55l43.67,25.47a12.51,12.51,0,1,0,12.25-15.06Zm-196,0a4.19,4.19,0,1,1-4.19-4.19,4.18,4.18,0,0,1,4.19,4.19Zm62.56,25a4.18,4.18,0,0,1-4.17-4.17v0a4.17,4.17,0,1,1,4.17,4.2Zm66.74-37.54a4.18,4.18,0,1,1,4.17-4.17,4.16,4.16,0,0,1-4.17,4.17Zm66.74,29.2a4.18,4.18,0,1,1,4.17-4.18,4.18,4.18,0,0,1-4.17,4.18Zm0,0" style="fill:#fff"/><path d="M221.42,243.72a38,38,0,1,0-63,40.86,58.07,58.07,0,0,0,5,4.78,32,32,0,0,0,5.89,3.66,37.86,37.86,0,0,0,34.75,0,31,31,0,0,0,6.83-4.22,26.41,26.41,0,0,0,4.09-4.22A38,38,0,0,0,221.42,243.72Zm-64.25,15.52A29.6,29.6,0,0,1,182.5,230V257.5l-19.43,19.43A29.4,29.4,0,0,1,157.17,259.24ZM198,286.55a29.53,29.53,0,0,1-29-3.65l19.43-19.43H216A29.54,29.54,0,0,1,198,286.55ZM191,255V230a29.63,29.63,0,0,1,25,25Z" style="fill:#fff"/><path d="M553.15,367h-17a4.25,4.25,0,0,0-4.25,4.26v25.5h-4.25v-85a4.25,4.25,0,0,0-4.25-4.25h-17a4.25,4.25,0,0,0-4.25,4.25v85h-4.25v-102a4.25,4.25,0,0,0-4.25-4.25h-17a4.25,4.25,0,0,0-4.25,4.25v102h-4.25V324.49a4.25,4.25,0,0,0-4.25-4.25h-17a4.25,4.25,0,0,0-4.25,4.25v72.26h-4.25v-25.5a4.26,4.26,0,0,0-4.26-4.26h-17a4.26,4.26,0,0,0-4.25,4.26V401a4.25,4.25,0,0,0,4.25,4.25h136A4.25,4.25,0,0,0,557.4,401V371.25A4.25,4.25,0,0,0,553.15,367ZM429.88,396.75h-8.5V375.5h8.5Zm29.76,0h-8.5v-68h8.5Zm29.75,0h-8.5V299h8.5Zm29.76,0h-8.5V316h8.5Zm29.75,0h-8.5V375.5h8.5Z" style="fill:#fff"/><polygon points="318.51 475.71 307.35 509.19 401.31 509.19 390.15 475.71 318.51 475.71" style="fill:none"/><path d="M111.58,442.22A16.77,16.77,0,0,0,128.32,459h452a16.77,16.77,0,0,0,16.74-16.75v-6.51H111.58Z" style="fill:none"/><rect x="270.62" y="525.93" width="167.42" height="8.37" style="fill:none"/><path d="M580.34,157.62h-452A33.51,33.51,0,0,0,94.84,191.1V442.22a33.52,33.52,0,0,0,33.48,33.49H300.86L289.7,509.19H262.25a8.37,8.37,0,0,0-8.37,8.37V534.3H170.17a8.37,8.37,0,1,0,0,16.74H538.49a8.37,8.37,0,0,0,0-16.74H454.78V517.56a8.37,8.37,0,0,0-8.37-8.37H419L407.8,475.71H580.34a33.52,33.52,0,0,0,33.48-33.49V191.1A33.51,33.51,0,0,0,580.34,157.62ZM438,525.93v8.37H270.62v-8.37ZM307.35,509.19l11.17-33.48h71.63l11.16,33.48ZM597.08,398v44.22A16.77,16.77,0,0,1,580.34,459h-452a16.77,16.77,0,0,1-16.74-16.75V191.1a16.76,16.76,0,0,1,16.74-16.74h452a16.76,16.76,0,0,1,16.74,16.74Z" style="fill:#fff"/><rect x="111.58" y="424.56" width="485.51" height="16.74" style="fill:#fff"/><path d="M425.23,360a4.19,4.19,0,0,1-4.19-4.18v-32.5H316.79a4.18,4.18,0,0,1-4.19-4.18v-21.2a4.19,4.19,0,0,1,8.37,0v17H425.23a4.19,4.19,0,0,1,4.18,4.19v36.68A4.18,4.18,0,0,1,425.23,360Z" style="fill:#fff"/><path d="M544.65,360.45a4.2,4.2,0,0,1-4.19-4.19V297.91a4.19,4.19,0,0,1,8.38,0v58.35A4.2,4.2,0,0,1,544.65,360.45Z" style="fill:#fff"/><path d="M455.39,315a4.19,4.19,0,0,1-4.19-4.18V298.62H415.78a4.18,4.18,0,0,1-4.18-4.18v-9.88a4.19,4.19,0,1,1,8.37,0v5.69h35.42a4.19,4.19,0,0,1,4.18,4.19v16.41A4.18,4.18,0,0,1,455.39,315Z" style="fill:#fff"/></svg>