<svg id="Capa_1" data-name="Capa 1" xmlns="http://www.w3.org/2000/svg" viewBox="0 0 708.66 708.66"><circle cx="354.33" cy="354.33" r="354.33" style="fill:#002b49"/><rect x="322.67" y="214.85" width="288.45" height="278.96" rx="33" style="fill:#fff"/><rect x="214.03" y="341.45" width="127.63" height="9.11" style="fill:#fff"/><path d="M214.89,328.88A17.13,17.13,0,1,0,232,346,17.13,17.13,0,0,0,214.89,328.88Z" style="fill:#fff"/><rect x="113.82" y="308.53" width="218.74" height="9.11" style="fill:#fff"/><path d="M114.67,296a17.13,17.13,0,1,0,17.13,17.13A17.13,17.13,0,0,0,114.67,296Z" style="fill:#fff"/><polygon points="259.05 313.09 249.94 313.09 249.94 271.52 209.98 271.52 209.98 262.41 259.05 262.41 259.05 313.09" style="fill:#fff"/><circle cx="210.84" cy="266.97" r="17.13" transform="translate(-55.7 55.58) rotate(-13.28)" style="fill:#fff"/><rect x="136.59" y="374.65" width="195.96" height="9.11" style="fill:#fff"/><path d="M137.45,362.08a17.13,17.13,0,1,0,17.13,17.13A17.13,17.13,0,0,0,137.45,362.08Z" style="fill:#fff"/><polygon points="295.49 429.88 187.21 429.88 187.21 420.77 286.38 420.77 286.38 379.21 295.49 379.21 295.49 429.88" style="fill:#fff"/><circle cx="188.06" cy="425.33" r="17.13" transform="translate(-92.69 54.59) rotate(-13.28)" style="fill:#fff"/></svg>