<svg id="Layer_1" data-name="Layer 1" xmlns="http://www.w3.org/2000/svg" viewBox="0 0 708.66 708.66"><path d="M604.84,103.65c-138.18-138.19-363-138.19-501.2,0s-138.18,363,0,501.2A355.73,355.73,0,0,0,365.29,708.48l-2.38-76.62c-3.69.14-7.4.24-11.12.24-154.57,0-280.31-125.75-280.31-280.31S197.22,71.48,351.79,71.48,632.1,197.22,632.1,351.79a282.22,282.22,0,0,1-1.51,29.08L707,388.18A353.43,353.43,0,0,0,604.84,103.65Z" style="fill:#09c"/><path d="M351.79,98.07c-140.13,0-253.72,113.59-253.72,253.72S211.66,605.51,351.79,605.51s253.72-113.6,253.72-253.72S491.91,98.07,351.79,98.07Zm21.5,85a29.12,29.12,0,0,1,2.49-5.76,29.23,29.23,0,1,1,52,26.68,29.23,29.23,0,0,1-54.45-20.92Zm93.07,85.79a29.24,29.24,0,1,1-36.57,19.33A29.25,29.25,0,0,1,466.36,268.87ZM189.88,210.1a29.35,29.35,0,0,1,32.87-17.82l.32.07A47.14,47.14,0,0,0,255.24,188l18.41-9.84A46.44,46.44,0,0,0,295,154.05l.27-.66a29.25,29.25,0,1,1,21.25,40l-.32-.07a47.25,47.25,0,0,0-32.17,4.34l-18.41,9.84a46.44,46.44,0,0,0-21.39,24.12l-.27.66a29.25,29.25,0,0,1-54.12-22.19ZM325,254.53a29.24,29.24,0,1,1-19.24-36.61A29.24,29.24,0,0,1,325,254.53ZM161.8,292.29a29.24,29.24,0,0,1,36.65-19.16,29.75,29.75,0,0,1,5.73,2.5,29.23,29.23,0,1,1-26.81,51.89A29.22,29.22,0,0,1,161.8,292.29Zm87.38,200.54A29.25,29.25,0,0,1,192,480.6c0-.11.05-.22.07-.33a47.22,47.22,0,0,0-4.26-32.18L178,429.66a46.49,46.49,0,0,0-24.07-21.45q-.33-.12-.66-.27a29.25,29.25,0,1,1,40.06-21.16c0,.11,0,.22-.07.33a47.18,47.18,0,0,0,4.26,32.17l9.8,18.44a46.43,46.43,0,0,0,24.07,21.44l.66.27A29.34,29.34,0,0,1,249.18,492.83ZM237,434.32a29.25,29.25,0,1,1,36.66-19.16A29.25,29.25,0,0,1,237,434.32Zm93.16,88.59a32.55,32.55,0,1,1,.6-14.76A29.25,29.25,0,0,1,330.13,522.91ZM318.82,355.43a31.36,31.36,0,1,1,31.35,31.35A31.36,31.36,0,0,1,318.82,355.43Zm25.48,75.25,2.83-29.6a47.18,47.18,0,1,0-42.63-45.49l-29.72.92a76.92,76.92,0,1,1,69.52,74.17Zm90.81,35.49a29.24,29.24,0,1,1-19.41-36.52A29.25,29.25,0,0,1,435.11,466.17Zm79.37,26.69a29.32,29.32,0,0,1-32.78,18l-.33-.07a47.16,47.16,0,0,0-32.14,4.5l-18.37,9.92a46.47,46.47,0,0,0-21.28,24.22c-.08.22-.17.44-.26.66a29.25,29.25,0,1,1-21.44-39.91l.33.07a47.21,47.21,0,0,0,32.14-4.49l18.36-9.93A46.41,46.41,0,0,0,460,471.59l.27-.67a29.25,29.25,0,0,1,54.22,21.94Zm27.7-82.32a32,32,0,1,1-15.73-35.16A29.23,29.23,0,0,1,542.18,410.54ZM528.12,349a29.32,29.32,0,0,1-17.89-32.82c0-.11,0-.22.07-.33a47.16,47.16,0,0,0-4.42-32.15L496,265.33A46.46,46.46,0,0,0,471.84,244l-.67-.26a29.25,29.25,0,1,1,40-21.35c0,.11-.05.22-.07.33a47.16,47.16,0,0,0,4.42,32.15l9.88,18.39a46.44,46.44,0,0,0,24.17,21.34l.66.26A29.25,29.25,0,0,1,528.12,349Z" style="fill:#09c"/></svg>