<svg id="Capa_1" data-name="Capa 1" xmlns="http://www.w3.org/2000/svg" viewBox="0 0 1223.46 592.9"><polygon points="288.67 208.52 288.67 139.43 514.23 351.81 288.67 564.2 288.67 495.11 441.31 351.81 288.67 208.52" style="fill:#fff"/><polygon points="477.77 317.48 514.23 351.81 288.67 564.2 288.67 495.11 477.77 317.48" style="fill:#fff"/><polygon points="250.81 91.75 250.81 22.66 25.25 235.05 250.81 447.43 250.81 378.34 98.17 235.05 250.81 91.75" style="fill:#fff"/><polygon points="61.71 200.71 25.25 235.05 250.81 447.43 250.81 378.34 61.71 200.71" style="fill:#fff"/><circle cx="258.09" cy="288.06" r="47.23" style="fill:#fff"/><path d="M532.85,22.8q44.25,0,67.95,15.56t23.7,51q0,35.69-24,51.53T532,156.69H518v66.24H473.47v-195a252.08,252.08,0,0,1,30.83-4Q520.57,22.8,532.85,22.8Zm2.85,38q-4.85,0-9.56.28t-8.13.58v57.09h14q23.13,0,34.83-6.28T578.53,89q0-8.28-3-13.7A22.86,22.86,0,0,0,567,66.62a38.87,38.87,0,0,0-13.56-4.57A112.86,112.86,0,0,0,535.7,60.77Z" style="fill:#fff"/><path d="M697.29,22.8q44.55,0,68.24,15.84t23.7,49.25q0,20.85-9.57,33.83t-27.55,20.41q6,7.44,12.56,17t13,20q6.42,10.42,12.42,21.7t11.13,22.12H751.43q-5.45-9.7-11-19.7t-11.46-19.41q-5.88-9.42-11.6-17.85T705.86,150.7h-22v72.23H639.34v-195a252.79,252.79,0,0,1,30.12-4Q685,22.8,697.29,22.8Zm2.57,38c-3.24,0-6.13.09-8.7.28l-7.28.58V115.3h12.56q25.11,0,36-6.28T743.26,87.6q0-14.55-11-20.69T699.86,60.77Z" style="fill:#fff"/><path d="M997.87,123.86q0,25.42-7.57,44.68t-20.7,32.27a85,85,0,0,1-31.26,19.55,113.55,113.55,0,0,1-39,6.57,110.62,110.62,0,0,1-38.26-6.57,88,88,0,0,1-31.4-19.55,91.42,91.42,0,0,1-21.13-32.27q-7.71-19.26-7.71-44.68t8-44.68a95,95,0,0,1,21.55-32.4,88.73,88.73,0,0,1,31.41-19.7,108,108,0,0,1,37.54-6.57,110.89,110.89,0,0,1,38.26,6.57A87.13,87.13,0,0,1,969,46.78a92.93,92.93,0,0,1,21.13,32.4Q997.87,98.46,997.87,123.86Zm-151,0a89.56,89.56,0,0,0,3.57,26.27,59.71,59.71,0,0,0,10.28,20.13,45.55,45.55,0,0,0,16.41,13,56.29,56.29,0,0,0,44.39,0,45.34,45.34,0,0,0,16.57-13,60.24,60.24,0,0,0,10.27-20.13,89.89,89.89,0,0,0,3.57-26.27,91.4,91.4,0,0,0-3.57-26.41,60.05,60.05,0,0,0-10.27-20.26,45.26,45.26,0,0,0-16.57-13,52,52,0,0,0-22.12-4.56,50.38,50.38,0,0,0-22.27,4.71,46.92,46.92,0,0,0-16.41,13.13,59.58,59.58,0,0,0-10.28,20.27A90,90,0,0,0,846.84,123.86Z" style="fill:#fff"/><path d="M758.28,565.9q-5.35-16.74-11.52-34.37t-12.28-35.12H609.09Q603,514,596.91,531.62T585.52,565.9h-75Q528.62,514,544.86,470t31.83-82.92q15.57-38.93,30.67-73.89t31.37-68.33h68.5Q723,278.23,738.41,313.2t31,73.89Q785,426,801.24,470t34.44,95.89ZM671.46,317.6q-2.41,7-7.08,19t-10.6,27.81q-6,15.78-13.3,34.75T625.54,439h91.79q-7.37-20.88-14.27-39.91t-13.12-34.8q-6.23-15.78-10.91-27.8T671.46,317.6Z" style="fill:#fff"/><path d="M863.24,244.87H935.5v321H863.24Z" style="fill:#fff"/><path d="M1071.75,510.77q15.29,0,25.25-2.55t16-6.94a23.35,23.35,0,0,0,8.34-10.43,37.21,37.21,0,0,0,2.32-13.43q0-15.75-14.83-26.18t-51-22.46q-15.77-5.56-31.51-12.74A115.94,115.94,0,0,1,998.1,398a86,86,0,0,1-20.38-26.41q-7.89-15.51-7.89-37.75t8.35-40.07a85.65,85.65,0,0,1,23.62-30.34q15.29-12.51,37.07-19.23t49.09-6.71q32.43,0,56,6.95t38.92,15.28l-20.84,57a198.28,198.28,0,0,0-29.88-12.27q-16.45-5.32-39.61-5.33-26,0-37.3,7.18t-11.34,22q0,8.81,4.17,14.82a40.45,40.45,0,0,0,11.8,10.89,103.36,103.36,0,0,0,17.62,8.8q9.95,3.94,22,8.11,25,9.27,43.54,18.3t30.8,21.08a76.21,76.21,0,0,1,18.3,28.26q6,16.22,6,39.37,0,44.94-31.49,69.72t-95,24.78a264.38,264.38,0,0,1-38.45-2.54,251.13,251.13,0,0,1-30.35-6.26,171.79,171.79,0,0,1-22.69-7.87,168.48,168.48,0,0,1-16-7.88l20.38-57.44q14.36,7.88,35.44,14.13T1071.75,510.77Z" style="fill:#fff"/><path d="M1082.2,105.81q12-20.31,23-40.6t20.1-40.88h49.3q-16.33,32.1-33.82,62.2t-37,60.49v76H1059v-75.4q-19.5-30.37-37.13-60.77t-34-62.49h51.88q9.15,20.58,19.76,40.88T1082.2,105.81Z" style="fill:#fff"/></svg>