<svg id="Layer_1" data-name="Layer 1" xmlns="http://www.w3.org/2000/svg" viewBox="0 0 1004.5 243.03"><path d="M46.66,38.12H75.3V201.71H46.66Z" style="fill:#fff"/><path d="M106.69,83.26h24.74v17.41l.46.46a43.89,43.89,0,0,1,15.58-15.47,41.55,41.55,0,0,1,21.31-5.61q19.47,0,30.7,10.08t11.23,30.24v81.34H184.59V127.25q-.47-14-6-20.28t-17.18-6.3a28.48,28.48,0,0,0-11.92,2.4,25.85,25.85,0,0,0-8.93,6.65,31.27,31.27,0,0,0-5.73,10,35.62,35.62,0,0,0-2.06,12.14v69.88H106.69Z" style="fill:#fff"/><path d="M349.78,201.71H325v-16h-.46a31,31,0,0,1-15.35,14.78,52,52,0,0,1-21.3,4.46q-14,0-24.41-4.92a48.58,48.58,0,0,1-17.29-13.4,57.4,57.4,0,0,1-10.31-20.05,86.94,86.94,0,0,1-3.44-24.86q0-16,4.35-27.72a55.52,55.52,0,0,1,11.57-19.25,44.73,44.73,0,0,1,16.5-11.11,52.46,52.46,0,0,1,18.9-3.55,63.06,63.06,0,0,1,11.23,1,50,50,0,0,1,11,3.32,43.63,43.63,0,0,1,9.74,5.84,32.49,32.49,0,0,1,7.45,8.37h.46V38.12h26.12Zm-91.19-58a57.64,57.64,0,0,0,2,14.89,40.6,40.6,0,0,0,5.95,13.06,30.06,30.06,0,0,0,10.2,9.17,29.72,29.72,0,0,0,14.66,3.43,29.39,29.39,0,0,0,15-3.66A31.15,31.15,0,0,0,316.67,171a43.59,43.59,0,0,0,6-13.41,60.28,60.28,0,0,0,1.94-15.23q0-19.71-8.82-30.7t-23.94-11q-9.17,0-15.46,3.78A31.74,31.74,0,0,0,266,114.3a40.68,40.68,0,0,0-5.73,13.75A71.37,71.37,0,0,0,258.59,143.74Z" style="fill:#fff"/><path d="M398.58,149.24a45.47,45.47,0,0,0,1.94,13.29,32.74,32.74,0,0,0,5.85,11.23,28.1,28.1,0,0,0,9.85,7.67,32.47,32.47,0,0,0,14.2,2.86q11.46,0,18.45-4.92t10.42-14.78H484a49.06,49.06,0,0,1-19.24,29.9,52.34,52.34,0,0,1-15.92,7.79,64.39,64.39,0,0,1-18.45,2.63,62.6,62.6,0,0,1-24.74-4.58,51.14,51.14,0,0,1-18.22-12.83,54.46,54.46,0,0,1-11.22-19.7,80.07,80.07,0,0,1-3.78-25.2,71.17,71.17,0,0,1,4-23.95,61.31,61.31,0,0,1,11.45-19.93,53.77,53.77,0,0,1,41.81-18.67,53.15,53.15,0,0,1,25.09,5.84,55.09,55.09,0,0,1,18.45,15.47,62.75,62.75,0,0,1,10.65,22.11,67.82,67.82,0,0,1,1.72,25.77Zm60.94-17.18a42.32,42.32,0,0,0-2.64-11.92,31.71,31.71,0,0,0-5.95-10,29.52,29.52,0,0,0-9.17-6.88,27.09,27.09,0,0,0-12-2.63,31.42,31.42,0,0,0-12.48,2.4,28.48,28.48,0,0,0-9.62,6.65,32.72,32.72,0,0,0-6.42,10,34.73,34.73,0,0,0-2.63,12.37Z" style="fill:#fff"/><path d="M537.42,139.39l-41-56.13H528l24.75,36.43,25.89-36.43H608.9L568.58,138l45.36,63.7H582.55l-30-43.76-29.1,43.76h-30.7Z" style="fill:#fff"/><path d="M653.8,38.12l54.3,143.43L764.47,38.12h22.91V201.71H771.8V60.34h-.46l-55.9,141.37H700.77L646.93,60.34h-.46V201.71H630.89V38.12Z" style="fill:#fff"/><path d="M831.37,38.12V61.26H816.93V38.12Zm0,45.37V201.71H816.93V83.49Z" style="fill:#fff"/><path d="M931.49,99.75q-8-7.56-22.46-7.56a36.64,36.64,0,0,0-18.1,4.35A40,40,0,0,0,878,108a51.83,51.83,0,0,0-7.79,16.15,66,66,0,0,0,0,36.89A51.62,51.62,0,0,0,878,177.19a39.72,39.72,0,0,0,12.94,11.46A36.54,36.54,0,0,0,909,193a32.08,32.08,0,0,0,12.61-2.52,33.91,33.91,0,0,0,10.54-7,37.58,37.58,0,0,0,7.56-10.65,39.5,39.5,0,0,0,3.66-13.52h14.44q-3,21.54-15.81,33.57t-33,12A55.48,55.48,0,0,1,885.09,200a50.79,50.79,0,0,1-17.52-13.4,58.36,58.36,0,0,1-10.77-19.82,81.42,81.42,0,0,1,0-48.34,58.27,58.27,0,0,1,10.77-19.82,52.1,52.1,0,0,1,17.52-13.52,54.35,54.35,0,0,1,23.94-5q19,0,32.2,10.08t15.69,30.47H942.49Q939.51,107.33,931.49,99.75Z" style="fill:#fff"/></svg>