<svg id="Capa_1" data-name="Capa 1" xmlns="http://www.w3.org/2000/svg" viewBox="0 0 1223.46 592.9"><path d="M486.3,103.38C379.88-3,206.72-3,100.29,103.38s-106.41,279.59,0,386A274,274,0,0,0,301.81,569.2l-1.84-59c-2.84.11-5.69.18-8.56.18-119,0-215.88-96.84-215.88-215.88S172.37,78.61,291.41,78.61s215.88,96.84,215.88,215.88a217.93,217.93,0,0,1-1.16,22.39L565,322.52A272.24,272.24,0,0,0,486.3,103.38Z" style="fill:#09c"/><path d="M291.41,99.09C183.49,99.09,96,186.57,96,294.49s87.48,195.4,195.4,195.4,195.4-87.48,195.4-195.4S399.33,99.09,291.41,99.09ZM308,164.56a22.63,22.63,0,0,1,1.92-4.44,22.49,22.49,0,1,1-1.92,4.44Zm71.67,66.07a22.52,22.52,0,1,1-28.16,14.88A22.52,22.52,0,0,1,379.64,230.63ZM166.72,185.37A22.59,22.59,0,0,1,192,171.65l.25,0a36.36,36.36,0,0,0,24.77-3.34l14.18-7.58a35.79,35.79,0,0,0,16.48-18.58c.06-.17.13-.34.2-.51a22.53,22.53,0,1,1,16.37,30.82l-.25-.06a36.36,36.36,0,0,0-24.77,3.35l-14.18,7.58A35.77,35.77,0,0,0,208.6,202c-.06.17-.13.34-.2.51a22.52,22.52,0,0,1-41.68-17.09Zm104,34.22a22.52,22.52,0,1,1-14.82-28.2A22.53,22.53,0,0,1,270.76,219.59ZM145.09,248.67a22.53,22.53,0,0,1,28.23-14.76,22.93,22.93,0,0,1,4.41,1.93,22.51,22.51,0,0,1-16.21,41.89,22.08,22.08,0,0,1-4.44-1.93A22.5,22.5,0,0,1,145.09,248.67Zm67.3,154.44a22.52,22.52,0,0,1-44-9.42,2.21,2.21,0,0,1,0-.25,36.32,36.32,0,0,0-3.29-24.78l-7.54-14.2A35.82,35.82,0,0,0,139,337.94l-.51-.2a22.53,22.53,0,1,1,30.85-16.3c0,.08,0,.17-.05.25a36.32,36.32,0,0,0,3.29,24.78l7.54,14.2a35.79,35.79,0,0,0,18.54,16.52l.51.2A22.59,22.59,0,0,1,212.39,403.11ZM203,358.05a22.52,22.52,0,1,1,28.23-14.76A22.52,22.52,0,0,1,203,358.05Zm71.75,68.23a22.52,22.52,0,0,1-43.89-3.88,22.25,22.25,0,0,1,.53-11.42,23,23,0,0,1,43.36,15.3Zm-8.71-129a24.15,24.15,0,1,1,24.15,24.15A24.15,24.15,0,0,1,266,297.29Zm19.62,58,2.18-22.8a36.34,36.34,0,1,0-32.83-35l-22.89.71a59.24,59.24,0,1,1,53.54,57.12Zm69.94,27.33a22.53,22.53,0,1,1-14.95-28.13A22.53,22.53,0,0,1,355.58,382.58Zm61.13,20.56A22.6,22.6,0,0,1,391.46,417l-.25-.05a36.35,36.35,0,0,0-24.76,3.45L352.31,428a35.72,35.72,0,0,0-16.39,18.65l-.21.51a22.52,22.52,0,1,1-16.51-30.74l.26.05A36.27,36.27,0,0,0,344.21,413l14.15-7.64a35.74,35.74,0,0,0,16.38-18.65l.21-.51a22.53,22.53,0,0,1,41.76,16.9ZM438,339.74a22.52,22.52,0,0,1-28.16,14.89,22.94,22.94,0,0,1-4.41-1.91,22.51,22.51,0,0,1,16-42,22,22,0,0,1,4.44,1.91A22.51,22.51,0,0,1,438,339.74Zm-10.83-47.38a22.6,22.6,0,0,1-13.78-25.28l.06-.25a36.33,36.33,0,0,0-3.41-24.76l-7.61-14.17a35.76,35.76,0,0,0-18.61-16.43l-.51-.2a22.53,22.53,0,1,1,30.77-16.44c0,.08,0,.16-.05.25a36.4,36.4,0,0,0,3.4,24.76L425.09,234a35.73,35.73,0,0,0,18.61,16.44l.51.2a22.53,22.53,0,0,1-17,41.72Z" style="fill:#09c"/><text transform="translate(596.25 347.75)" style="font-size:164.02392578125px;fill:#09c;font-family:Ubuntu-Bold, Ubuntu;font-weight:700">AI<tspan x="170.09" y="0" style="letter-spacing:0.011990914530499731em">S</tspan><tspan x="267.52" y="0">alud</tspan></text></svg>