<svg id="Capa_1" data-name="Capa 1" xmlns="http://www.w3.org/2000/svg" viewBox="0 0 1223.46 120.03"><path d="M180.2,91c-1.08-2.88-2.11-5.71-3.07-8.49s-1.95-5.62-3-8.5H144l-6,17H128.3q3.84-10.56,7.2-19.53t6.57-17q3.21-8.05,6.38-15.4t6.62-14.53h8.54q3.45,7.2,6.62,14.53t6.38,15.4q3.21,8.06,6.57,17T190.37,91Zm-8.73-24.66q-3.06-8.36-6.09-16.17t-6.28-15q-3.36,7.18-6.38,15t-6,16.17Z" style="fill:#09c"/><path d="M198.82,42.54c2-.52,4.76-1.06,8.15-1.64A71.21,71.21,0,0,1,218.68,40a25.3,25.3,0,0,1,9.88,1.68,15.53,15.53,0,0,1,6.28,4.7,18.19,18.19,0,0,1,3.31,7.24,42.07,42.07,0,0,1,1,9.31V91h-8.92V64.89a43.21,43.21,0,0,0-.62-7.87,13.33,13.33,0,0,0-2.07-5.27,8.15,8.15,0,0,0-3.84-2.93,16.75,16.75,0,0,0-5.94-.91c-1,0-2,0-3,.09s-2,.15-2.92.24-1.76.21-2.5.34-1.26.22-1.58.29V91h-8.92Z" style="fill:#09c"/><path d="M270,39.85a25.78,25.78,0,0,1,9.07,1.39,14.15,14.15,0,0,1,9.16,10,29.14,29.14,0,0,1,1,7.72V90.12l-3.21.53c-1.38.23-2.93.43-4.66.62s-3.59.37-5.61.53-4,.24-6,.24a33.22,33.22,0,0,1-7.78-.86,17.49,17.49,0,0,1-6.14-2.74,12.51,12.51,0,0,1-4-4.94,17.27,17.27,0,0,1-1.43-7.39A14.19,14.19,0,0,1,252,69a13.29,13.29,0,0,1,4.56-4.8,21.12,21.12,0,0,1,6.72-2.69,37,37,0,0,1,8.06-.86c.89,0,1.82,0,2.78.14s1.87.23,2.73.39l2.26.43c.64.13,1.08.22,1.34.29v-2.5a20,20,0,0,0-.48-4.36,9.88,9.88,0,0,0-1.73-3.84,8.69,8.69,0,0,0-3.4-2.69,13.37,13.37,0,0,0-5.61-1,41.78,41.78,0,0,0-7.73.63,27.45,27.45,0,0,0-4.94,1.29l-1-7.38a27,27,0,0,1,5.75-1.49A49.75,49.75,0,0,1,270,39.85Zm.77,44.71q3.17,0,5.61-.15a24.67,24.67,0,0,0,4.08-.52V69a11.27,11.27,0,0,0-3.12-.82,35.13,35.13,0,0,0-5.23-.34,34.29,34.29,0,0,0-4.27.29,13.06,13.06,0,0,0-4.12,1.2,8.8,8.8,0,0,0-3.12,2.5A6.53,6.53,0,0,0,259.35,76c0,3.2,1,5.42,3.07,6.67A16.07,16.07,0,0,0,270.77,84.56Z" style="fill:#09c"/><path d="M318.93,92q-8.25-.2-11.7-3.55t-3.46-10.46V18.07l8.93-1.53v60a14.2,14.2,0,0,0,.38,3.64,5,5,0,0,0,1.25,2.31,5.39,5.39,0,0,0,2.3,1.29,23.19,23.19,0,0,0,3.55.72Z" style="fill:#09c"/><path d="M346.27,22.2,332.75,35.34l-4.51-4,12.28-14.77ZM339.08,91h-8.92V41.1h8.92Z" style="fill:#09c"/><path d="M362.78,41.1h18.9v7.48h-18.9v23a27.88,27.88,0,0,0,.57,6.18,9.19,9.19,0,0,0,1.73,3.84,6.27,6.27,0,0,0,2.88,2,12.85,12.85,0,0,0,4,.57,18.88,18.88,0,0,0,6.47-.91c1.63-.6,2.77-1,3.41-1.29l1.73,7.39A34.62,34.62,0,0,1,378.89,91a26.4,26.4,0,0,1-7.67,1,23.39,23.39,0,0,1-8.4-1.29,12.27,12.27,0,0,1-5.32-3.89,15.55,15.55,0,0,1-2.83-6.38,41.62,41.62,0,0,1-.82-8.78V27.18l8.93-1.53Z" style="fill:#09c"/><path d="M397.41,32.08a5.72,5.72,0,0,1-4.08-1.59,5.56,5.56,0,0,1-1.68-4.26A5.58,5.58,0,0,1,393.33,22a6,6,0,0,1,8.16,0,5.58,5.58,0,0,1,1.68,4.27,5.56,5.56,0,0,1-1.68,4.26A5.72,5.72,0,0,1,397.41,32.08ZM401.92,91H393V41.1h8.92Z" style="fill:#09c"/><path d="M439,92.14a27.14,27.14,0,0,1-10.6-1.92,21.37,21.37,0,0,1-7.68-5.37A22.43,22.43,0,0,1,416,76.64a34.1,34.1,0,0,1-1.53-10.5,31.78,31.78,0,0,1,1.68-10.56,25,25,0,0,1,4.74-8.3,21.32,21.32,0,0,1,7.54-5.46,24.35,24.35,0,0,1,9.93-2,40.08,40.08,0,0,1,6.71.57,31.44,31.44,0,0,1,6.43,1.83l-2,7.58a22,22,0,0,0-4.66-1.54,26.54,26.54,0,0,0-5.61-.57q-7.49,0-11.47,4.7t-4,13.72a28.41,28.41,0,0,0,.91,7.38,15.31,15.31,0,0,0,2.88,5.76,12.76,12.76,0,0,0,5,3.69,19.12,19.12,0,0,0,7.48,1.3,28.22,28.22,0,0,0,6.43-.67A23.83,23.83,0,0,0,451,82.16l1.25,7.48a9.21,9.21,0,0,1-2.21.91,29.73,29.73,0,0,1-3.26.77c-1.22.22-2.51.42-3.89.58A34.36,34.36,0,0,1,439,92.14Z" style="fill:#09c"/><path d="M478,39.85a25.86,25.86,0,0,1,9.07,1.39,14.2,14.2,0,0,1,9.16,10,29.14,29.14,0,0,1,1,7.72V90.12l-3.22.53c-1.37.23-2.92.43-4.65.62s-3.6.37-5.61.53-4,.24-6,.24a33.2,33.2,0,0,1-7.77-.86,17.41,17.41,0,0,1-6.14-2.74,12.42,12.42,0,0,1-4-4.94,17.27,17.27,0,0,1-1.44-7.39A14.19,14.19,0,0,1,460,69a13.29,13.29,0,0,1,4.56-4.8,21.06,21.06,0,0,1,6.71-2.69,37,37,0,0,1,8.06-.86c.9,0,1.83,0,2.78.14s1.88.23,2.74.39l2.25.43c.64.13,1.09.22,1.35.29v-2.5a20,20,0,0,0-.48-4.36,10,10,0,0,0-1.73-3.84,8.73,8.73,0,0,0-3.41-2.69,13.37,13.37,0,0,0-5.61-1,41.74,41.74,0,0,0-7.72.63,27,27,0,0,0-4.94,1.29l-1.06-7.38a26.92,26.92,0,0,1,5.76-1.49A49.58,49.58,0,0,1,478,39.85Zm.77,44.71q3.17,0,5.61-.15a24.67,24.67,0,0,0,4.08-.52V69a11.27,11.27,0,0,0-3.12-.82,35.13,35.13,0,0,0-5.23-.34,34.17,34.17,0,0,0-4.27.29,13,13,0,0,0-4.12,1.2,8.8,8.8,0,0,0-3.12,2.5A6.53,6.53,0,0,0,467.35,76q0,4.8,3.07,6.67A16.07,16.07,0,0,0,478.77,84.56Z" style="fill:#09c"/><path d="M532.7,24.5H542V91h-9.3Z" style="fill:#09c"/><path d="M557.93,42.54c2.05-.52,4.76-1.06,8.15-1.64A71.29,71.29,0,0,1,577.79,40a25.27,25.27,0,0,1,9.88,1.68,15.56,15.56,0,0,1,6.29,4.7,18.33,18.33,0,0,1,3.31,7.24,42.68,42.68,0,0,1,1,9.31V91H589.3V64.89a43.21,43.21,0,0,0-.62-7.87,13.33,13.33,0,0,0-2.06-5.27,8.15,8.15,0,0,0-3.84-2.93,16.81,16.81,0,0,0-5.95-.91q-1.44,0-3,.09c-1,.07-2,.15-2.93.24s-1.76.21-2.49.34-1.27.22-1.59.29V91h-8.92Z" style="fill:#09c"/><path d="M621.35,41.1h18.9v7.48h-18.9v23a27.88,27.88,0,0,0,.57,6.18,9.32,9.32,0,0,0,1.73,3.84,6.27,6.27,0,0,0,2.88,2,12.85,12.85,0,0,0,4,.57,18.88,18.88,0,0,0,6.47-.91c1.63-.6,2.77-1,3.41-1.29l1.73,7.39A34.62,34.62,0,0,1,637.46,91a26.4,26.4,0,0,1-7.67,1,23.39,23.39,0,0,1-8.4-1.29,12.27,12.27,0,0,1-5.32-3.89,15.55,15.55,0,0,1-2.83-6.38,41.62,41.62,0,0,1-.82-8.78V27.18l8.93-1.53Z" style="fill:#09c"/><path d="M647.82,66.14a31.78,31.78,0,0,1,1.92-11.56,24.21,24.21,0,0,1,5.09-8.21,20.73,20.73,0,0,1,7.29-4.89,22.74,22.74,0,0,1,8.44-1.63q10.08,0,15.45,6.28t5.37,19.14v1.49a14.44,14.44,0,0,1-.09,1.68H657.13q.58,7.77,4.51,11.8t12.28,4a32.49,32.49,0,0,0,7.92-.82,28.48,28.48,0,0,0,4.84-1.58l1.25,7.49a27,27,0,0,1-5.71,1.82,40.54,40.54,0,0,1-9.26,1,29.38,29.38,0,0,1-11.27-2,21,21,0,0,1-7.82-5.42,22.07,22.07,0,0,1-4.56-8.2A34.78,34.78,0,0,1,647.82,66.14Zm34.26-4.9a15,15,0,0,0-3-9.93,10.39,10.39,0,0,0-8.58-3.88,11.73,11.73,0,0,0-5.42,1.2,12.82,12.82,0,0,0-4,3.12,14.57,14.57,0,0,0-2.54,4.41,22.08,22.08,0,0,0-1.2,5.08Z" style="fill:#09c"/><path d="M735.52,86a24.23,24.23,0,0,1-4.47,2,22.6,22.6,0,0,1-7.72,1.2,24.74,24.74,0,0,1-8.49-1.44,18.48,18.48,0,0,1-7-4.46,21.5,21.5,0,0,1-4.7-7.53A30.05,30.05,0,0,1,701.46,65a29.52,29.52,0,0,1,1.63-10,22.15,22.15,0,0,1,4.75-7.87,21.86,21.86,0,0,1,7.62-5.18A26.3,26.3,0,0,1,725.63,40a57.86,57.86,0,0,1,10.89.91q4.65.91,7.82,1.68V87.15q0,11.5-6,16.69t-18,5.18a49.2,49.2,0,0,1-8.88-.76,50.69,50.69,0,0,1-7.24-1.83l1.63-7.77a41.52,41.52,0,0,0,6.57,1.87,39.62,39.62,0,0,0,8.11.82q8,0,11.46-3.17t3.51-10.07Zm-.1-37a32.29,32.29,0,0,0-3.6-.72,44.07,44.07,0,0,0-6.09-.33q-7.2,0-11.08,4.7t-3.89,12.47a21.82,21.82,0,0,0,1.11,7.39,14.42,14.42,0,0,0,3,5.08,11.62,11.62,0,0,0,4.32,3,13.66,13.66,0,0,0,5,1,20.32,20.32,0,0,0,6.53-1,15.93,15.93,0,0,0,4.7-2.35Z" style="fill:#09c"/><path d="M778.11,40q1.15,0,2.64.15c1,.09,2,.22,2.93.38s1.84.32,2.63.48a15.64,15.64,0,0,1,1.78.43l-1.53,7.77a31.54,31.54,0,0,0-3.51-.91,30.74,30.74,0,0,0-6.28-.53,23.49,23.49,0,0,0-4.94.53c-1.63.35-2.7.59-3.22.72V91h-8.92V43.21a59.75,59.75,0,0,1,7.87-2.16A50.59,50.59,0,0,1,778.11,40Z" style="fill:#09c"/><path d="M812.84,39.85a25.86,25.86,0,0,1,9.07,1.39,14.15,14.15,0,0,1,9.16,10,29.14,29.14,0,0,1,1,7.72V90.12l-3.21.53c-1.38.23-2.93.43-4.66.62s-3.6.37-5.61.53-4,.24-6,.24a33.2,33.2,0,0,1-7.77-.86,17.49,17.49,0,0,1-6.14-2.74,12.51,12.51,0,0,1-4-4.94,17.27,17.27,0,0,1-1.44-7.39A14.19,14.19,0,0,1,794.85,69a13.29,13.29,0,0,1,4.56-4.8,21.12,21.12,0,0,1,6.72-2.69,36.88,36.88,0,0,1,8.06-.86c.89,0,1.82,0,2.78.14s1.87.23,2.73.39l2.26.43c.64.13,1.08.22,1.34.29v-2.5a20,20,0,0,0-.48-4.36,10,10,0,0,0-1.73-3.84,8.69,8.69,0,0,0-3.4-2.69,13.39,13.39,0,0,0-5.62-1,41.74,41.74,0,0,0-7.72.63,27.22,27.22,0,0,0-4.94,1.29l-1-7.38a26.79,26.79,0,0,1,5.75-1.49A49.75,49.75,0,0,1,812.84,39.85Zm.77,44.71q3.17,0,5.61-.15a24.67,24.67,0,0,0,4.08-.52V69a11.27,11.27,0,0,0-3.12-.82,35.13,35.13,0,0,0-5.23-.34,34.29,34.29,0,0,0-4.27.29,13.06,13.06,0,0,0-4.12,1.2,8.8,8.8,0,0,0-3.12,2.5A6.53,6.53,0,0,0,802.19,76q0,4.8,3.07,6.67A16.07,16.07,0,0,0,813.61,84.56Z" style="fill:#09c"/><path d="M879,18.07,888,16.54v73c-2.05.57-4.67,1.15-7.86,1.72a62.43,62.43,0,0,1-11,.87,27.84,27.84,0,0,1-10.36-1.83,22.17,22.17,0,0,1-7.87-5.18,22.81,22.81,0,0,1-5-8.2A31.33,31.33,0,0,1,844,66a35.53,35.53,0,0,1,1.49-10.55,23.57,23.57,0,0,1,4.36-8.25,19.76,19.76,0,0,1,7.06-5.38,22.73,22.73,0,0,1,9.54-1.92,23.13,23.13,0,0,1,7.63,1.16A23.88,23.88,0,0,1,879,43.3Zm0,33.58a18.17,18.17,0,0,0-4.7-2.59,17.74,17.74,0,0,0-6.72-1.25,14.42,14.42,0,0,0-6.57,1.39A12.11,12.11,0,0,0,856.59,53a16.21,16.21,0,0,0-2.49,5.81,31.71,31.71,0,0,0-.77,7.19q0,8.73,4.32,13.48t11.51,4.75a44.85,44.85,0,0,0,6.09-.34,27.76,27.76,0,0,0,3.79-.72Z" style="fill:#09c"/><path d="M919.43,39.85a25.86,25.86,0,0,1,9.07,1.39,14.15,14.15,0,0,1,9.16,10,29.14,29.14,0,0,1,1,7.72V90.12l-3.22.53c-1.37.23-2.92.43-4.65.62s-3.6.37-5.61.53-4,.24-6,.24a33.2,33.2,0,0,1-7.77-.86,17.41,17.41,0,0,1-6.14-2.74,12.42,12.42,0,0,1-4-4.94,17.27,17.27,0,0,1-1.44-7.39A14.19,14.19,0,0,1,901.44,69a13.29,13.29,0,0,1,4.56-4.8,21.16,21.16,0,0,1,6.71-2.69,37,37,0,0,1,8.06-.86c.9,0,1.83,0,2.79.14s1.87.23,2.73.39l2.26.43c.63.13,1.08.22,1.34.29v-2.5a20,20,0,0,0-.48-4.36,10,10,0,0,0-1.73-3.84,8.69,8.69,0,0,0-3.4-2.69,13.39,13.39,0,0,0-5.62-1,41.74,41.74,0,0,0-7.72.63A27.22,27.22,0,0,0,906,49.44l-1.06-7.38a27.09,27.09,0,0,1,5.76-1.49A49.75,49.75,0,0,1,919.43,39.85Zm.77,44.71q3.16,0,5.61-.15a24.67,24.67,0,0,0,4.08-.52V69a11.27,11.27,0,0,0-3.12-.82,35.13,35.13,0,0,0-5.23-.34,34.17,34.17,0,0,0-4.27.29,13,13,0,0,0-4.12,1.2,8.8,8.8,0,0,0-3.12,2.5A6.53,6.53,0,0,0,908.78,76q0,4.8,3.07,6.67A16.07,16.07,0,0,0,920.2,84.56Z" style="fill:#09c"/><path d="M993,84.37q14.58,0,14.58-10a10,10,0,0,0-1.29-5.23,12.58,12.58,0,0,0-3.51-3.74,24.32,24.32,0,0,0-5-2.74q-2.84-1.14-6-2.3a60.47,60.47,0,0,1-6.91-2.83,24.4,24.4,0,0,1-5.66-3.74,15.93,15.93,0,0,1-3.79-5.13,16.88,16.88,0,0,1-1.39-7.2q0-8.73,5.95-13.62T996.32,23a43.4,43.4,0,0,1,11,1.3,25.07,25.07,0,0,1,7.24,2.83l-3,7.58a26.16,26.16,0,0,0-6-2.45,32.13,32.13,0,0,0-9.25-1.2,20.15,20.15,0,0,0-5,.58,12.6,12.6,0,0,0-4,1.73,8.5,8.5,0,0,0-2.74,2.92,8.36,8.36,0,0,0-1,4.17,8.88,8.88,0,0,0,1.05,4.51,10.41,10.41,0,0,0,3,3.22,25,25,0,0,0,4.46,2.54q2.54,1.16,5.61,2.3c2.88,1.15,5.52,2.31,7.91,3.46a25.71,25.71,0,0,1,6.24,4.12,16.51,16.51,0,0,1,4.08,5.71,20.05,20.05,0,0,1,1.44,8q0,8.73-6.38,13.43t-18,4.7a46.44,46.44,0,0,1-7.25-.52,56.32,56.32,0,0,1-5.9-1.25,33.69,33.69,0,0,1-4.46-1.54c-1.24-.54-2.22-1-2.92-1.39l2.78-7.67a42,42,0,0,0,6.71,2.78A34.66,34.66,0,0,0,993,84.37Z" style="fill:#09c"/><path d="M1044.1,39.85a25.76,25.76,0,0,1,9.06,1.39,14.77,14.77,0,0,1,5.95,3.93,15,15,0,0,1,3.21,6,29.14,29.14,0,0,1,1,7.72V90.12l-3.21.53c-1.38.23-2.93.43-4.65.62s-3.6.37-5.62.53-4,.24-6,.24a33.08,33.08,0,0,1-7.77-.86,17.33,17.33,0,0,1-6.14-2.74,12.42,12.42,0,0,1-4-4.94,17.27,17.27,0,0,1-1.44-7.39,14.19,14.19,0,0,1,1.68-7.09,13.18,13.18,0,0,1,4.55-4.8,21.12,21.12,0,0,1,6.72-2.69,37,37,0,0,1,8.06-.86c.89,0,1.82,0,2.78.14s1.87.23,2.73.39l2.26.43c.64.13,1.09.22,1.34.29v-2.5a20,20,0,0,0-.48-4.36,10,10,0,0,0-1.72-3.84,8.8,8.8,0,0,0-3.41-2.69,13.37,13.37,0,0,0-5.61-1,41.78,41.78,0,0,0-7.73.63,27.45,27.45,0,0,0-4.94,1.29l-1.05-7.38a27,27,0,0,1,5.75-1.49A49.78,49.78,0,0,1,1044.1,39.85Zm.76,44.71c2.11,0,4,0,5.62-.15a24.53,24.53,0,0,0,4.07-.52V69a11.27,11.27,0,0,0-3.12-.82,35,35,0,0,0-5.22-.34,34,34,0,0,0-4.27.29,13,13,0,0,0-4.13,1.2,8.8,8.8,0,0,0-3.12,2.5,6.53,6.53,0,0,0-1.25,4.17q0,4.8,3.08,6.67A16,16,0,0,0,1044.86,84.56Z" style="fill:#09c"/><path d="M1093,92q-8.25-.2-11.7-3.55t-3.46-10.46V18.07l8.93-1.53v60a14.2,14.2,0,0,0,.38,3.64,5,5,0,0,0,1.25,2.31,5.39,5.39,0,0,0,2.3,1.29,23.19,23.19,0,0,0,3.55.72Z" style="fill:#09c"/><path d="M1144,89.55q-3.08.77-8.11,1.63a70.31,70.31,0,0,1-11.66.86,24.75,24.75,0,0,1-9.69-1.68,15.64,15.64,0,0,1-6.33-4.75,19.16,19.16,0,0,1-3.45-7.24,37.45,37.45,0,0,1-1.06-9.26v-28h8.93V67.19q0,9.12,2.87,13t9.69,3.93c1,0,1.95,0,3-.09s2-.15,2.88-.24,1.71-.19,2.44-.29a7.43,7.43,0,0,0,1.59-.34V41.1H1144Z" style="fill:#09c"/><path d="M1191.55,18.07l8.93-1.53v73c-2,.57-4.67,1.15-7.87,1.72a62.39,62.39,0,0,1-11,.87,27.89,27.89,0,0,1-10.37-1.83,22,22,0,0,1-7.86-5.18,22.69,22.69,0,0,1-5-8.2A31.57,31.57,0,0,1,1156.53,66,35.53,35.53,0,0,1,1158,55.49a23.59,23.59,0,0,1,4.37-8.25,19.81,19.81,0,0,1,7-5.38,22.74,22.74,0,0,1,9.55-1.92,23.07,23.07,0,0,1,7.62,1.16,23.64,23.64,0,0,1,4.94,2.2Zm0,33.58a18,18,0,0,0-4.7-2.59,17.65,17.65,0,0,0-6.71-1.25,14.49,14.49,0,0,0-6.58,1.39A12.11,12.11,0,0,0,1169.1,53a16.21,16.21,0,0,0-2.49,5.81,32.28,32.28,0,0,0-.77,7.19q0,8.73,4.32,13.48a14.78,14.78,0,0,0,11.51,4.75,44.85,44.85,0,0,0,6.09-.34,27.15,27.15,0,0,0,3.79-.72Z" style="fill:#09c"/><path d="M104,24.89a47.46,47.46,0,1,0-32.08,81l-.32-10.27c-.49,0-1,0-1.48,0a37.54,37.54,0,1,1,37.53-37.54,38.52,38.52,0,0,1-.2,3.89l10.24,1A47.36,47.36,0,0,0,104,24.89Z" style="fill:#09c"/><path d="M70.1,24.14a34,34,0,1,0,34,34A34,34,0,0,0,70.1,24.14ZM73,35.53a4.18,4.18,0,0,1,.34-.78,3.92,3.92,0,0,1,7.29,2.81,4.82,4.82,0,0,1-.33.77,3.92,3.92,0,0,1-7.3-2.8ZM85.44,47a3.92,3.92,0,1,1-4.9,2.59A3.93,3.93,0,0,1,85.44,47Zm-37-7.87a3.93,3.93,0,0,1,4.4-2.38h0a6.37,6.37,0,0,0,4.31-.58l2.46-1.32a6.25,6.25,0,0,0,2.87-3.23l0-.09a3.92,3.92,0,1,1,2.85,5.36h0a6.35,6.35,0,0,0-4.3.58L58.56,38.8A6.19,6.19,0,0,0,55.7,42l0,.09a3.92,3.92,0,0,1-7.25-3Zm18.1,6a3.92,3.92,0,1,1-2.58-4.9A3.93,3.93,0,0,1,66.51,45.09ZM44.65,50.15a3.92,3.92,0,0,1,4.91-2.56,3.51,3.51,0,0,1,.77.33,3.92,3.92,0,0,1-2.82,7.29,4.09,4.09,0,0,1-.77-.34A3.92,3.92,0,0,1,44.65,50.15ZM56.35,77a3.91,3.91,0,0,1-7.65-1.64v-.05a6.23,6.23,0,0,0-.57-4.3l-1.31-2.47a6.29,6.29,0,0,0-3.22-2.88l-.09,0a3.92,3.92,0,1,1,5.36-2.83v0a6.32,6.32,0,0,0,.58,4.31l1.31,2.47A6.23,6.23,0,0,0,54,72.5l.09,0A3.92,3.92,0,0,1,56.35,77Zm-1.63-7.84a3.91,3.91,0,1,1,4.91-2.57A3.93,3.93,0,0,1,54.72,69.17ZM67.19,81a3.91,3.91,0,0,1-7.63-.67,4.09,4.09,0,0,1,.09-2,3.92,3.92,0,0,1,7.62.69A3.78,3.78,0,0,1,67.19,81ZM65.68,58.61a4.2,4.2,0,1,1,4.2,4.2A4.2,4.2,0,0,1,65.68,58.61Zm3.41,10.07.38-4a6.32,6.32,0,1,0-5.71-6.09l-4,.12a10.3,10.3,0,1,1,17.58,7A10.22,10.22,0,0,1,69.09,68.68Zm12.16,4.76a3.92,3.92,0,1,1-2.6-4.89A3.92,3.92,0,0,1,81.25,73.44ZM91.88,77a3.93,3.93,0,0,1-4.39,2.41h0a6.32,6.32,0,0,0-4.31.6l-2.46,1.33a6.24,6.24,0,0,0-2.85,3.24l0,.09a3.92,3.92,0,1,1-2.87-5.34h0a6.32,6.32,0,0,0,4.31-.6l2.46-1.33a6.24,6.24,0,0,0,2.85-3.24l0-.09A3.92,3.92,0,0,1,91.88,77Zm3.71-11a3.93,3.93,0,0,1-4.89,2.59,3.83,3.83,0,0,1-.77-.34A3.91,3.91,0,0,1,92.71,61a3.31,3.31,0,0,1,.77.33A3.91,3.91,0,0,1,95.59,66Zm-1.88-8.24a4,4,0,0,1-2.4-4.4v0A6.32,6.32,0,0,0,90.73,49l-1.32-2.46a6.25,6.25,0,0,0-3.24-2.86l-.09,0a3.92,3.92,0,1,1,5.35-2.86v0a6.37,6.37,0,0,0,.6,4.31l1.32,2.46a6.22,6.22,0,0,0,3.24,2.86l.08,0a3.92,3.92,0,0,1-3,7.26Z" style="fill:#09c"/></svg>