<svg id="Layer_1" data-name="Layer 1" xmlns="http://www.w3.org/2000/svg" viewBox="0 0 1223.46 243.03"><rect x="196.14" y="-0.12" width="1027.32" height="243.05" rx="20.27" style="fill:#09c"/><path d="M275.58,39h28.64V202.58H275.58Z" style="fill:#fff"/><path d="M335.61,84.13h24.74v17.41l.46.46a43.89,43.89,0,0,1,15.58-15.47,41.55,41.55,0,0,1,21.31-5.61q19.47,0,30.7,10.08t11.23,30.24v81.34H413.51V128.12q-.47-14-6-20.28t-17.18-6.3a28.48,28.48,0,0,0-11.92,2.4,25.85,25.85,0,0,0-8.93,6.65,31.27,31.27,0,0,0-5.73,10,35.66,35.66,0,0,0-2.06,12.14v69.88H335.61Z" style="fill:#fff"/><path d="M578.7,202.58H554v-16h-.46a31,31,0,0,1-15.35,14.78,52,52,0,0,1-21.3,4.46q-14,0-24.41-4.92a48.58,48.58,0,0,1-17.29-13.4,57.24,57.24,0,0,1-10.31-20.05,86.94,86.94,0,0,1-3.44-24.86q0-16,4.35-27.72a55.52,55.52,0,0,1,11.57-19.25,44.73,44.73,0,0,1,16.5-11.11,52.46,52.46,0,0,1,18.9-3.55,63.06,63.06,0,0,1,11.23,1,50,50,0,0,1,11,3.32,43.63,43.63,0,0,1,9.74,5.84,32.49,32.49,0,0,1,7.45,8.37h.46V39H578.7Zm-91.19-58a57.77,57.77,0,0,0,1.95,14.9,40.65,40.65,0,0,0,6,13.05,30.06,30.06,0,0,0,10.2,9.17,29.73,29.73,0,0,0,14.66,3.44,29.39,29.39,0,0,0,15-3.67,31.15,31.15,0,0,0,10.31-9.62,43.59,43.59,0,0,0,6-13.41,60.28,60.28,0,0,0,1.94-15.23q0-19.71-8.82-30.7t-23.94-11q-9.17,0-15.47,3.78A31.94,31.94,0,0,0,495,115.17a40.86,40.86,0,0,0-5.72,13.75A71.37,71.37,0,0,0,487.51,144.61Z" style="fill:#fff"/><path d="M627.49,150.11a45.43,45.43,0,0,0,2,13.29,32.89,32.89,0,0,0,5.84,11.23,28.22,28.22,0,0,0,9.86,7.67,32.46,32.46,0,0,0,14.2,2.87q11.46,0,18.45-4.93t10.42-14.78H713a49.15,49.15,0,0,1-7.1,17.19,49.68,49.68,0,0,1-12.14,12.71,52.34,52.34,0,0,1-15.92,7.79,64.39,64.39,0,0,1-18.45,2.63,62.6,62.6,0,0,1-24.74-4.58,51.05,51.05,0,0,1-18.22-12.83,54.46,54.46,0,0,1-11.22-19.7,80.07,80.07,0,0,1-3.78-25.2,71.17,71.17,0,0,1,4-24,61.31,61.31,0,0,1,11.45-19.93,53.77,53.77,0,0,1,41.81-18.67,53.15,53.15,0,0,1,25.09,5.84,55.19,55.19,0,0,1,18.45,15.47,62.75,62.75,0,0,1,10.65,22.11,68,68,0,0,1,1.72,25.77Zm61-17.18A42.32,42.32,0,0,0,685.8,121a31.83,31.83,0,0,0-5.95-10,29.52,29.52,0,0,0-9.17-6.88,27.09,27.09,0,0,0-12-2.63,31.42,31.42,0,0,0-12.48,2.4,28.62,28.62,0,0,0-9.63,6.65,32.89,32.89,0,0,0-6.41,10,34.79,34.79,0,0,0-2.64,12.37Z" style="fill:#fff"/><path d="M766.34,140.26l-41-56.13h31.61l24.75,36.43,25.89-36.43h30.24L797.5,138.88l45.36,63.7H811.47l-30-43.76-29.1,43.76h-30.7Z" style="fill:#fff"/><path d="M882.72,39,937,182.42,993.38,39h22.92V202.58h-15.58V61.22h-.46l-55.9,141.36H929.69L875.85,61.22h-.46V202.58H859.81V39Z" style="fill:#fff"/><path d="M1060.29,39V62.13h-14.44V39Zm0,45.37V202.58h-14.44V84.36Z" style="fill:#fff"/><path d="M1160.41,100.62q-8-7.56-22.46-7.56a36.51,36.51,0,0,0-18.1,4.36,39.81,39.81,0,0,0-12.94,11.45,51.83,51.83,0,0,0-7.79,16.15,65.76,65.76,0,0,0,0,36.89,51.62,51.62,0,0,0,7.79,16.15,39.72,39.72,0,0,0,12.94,11.46,36.51,36.51,0,0,0,18.1,4.35,32,32,0,0,0,12.6-2.52,33.68,33.68,0,0,0,10.54-7,37.19,37.19,0,0,0,7.56-10.65,39.28,39.28,0,0,0,3.67-13.52h14.43q-3,21.54-15.8,33.57t-33,12a55.48,55.48,0,0,1-23.94-4.92,50.92,50.92,0,0,1-17.53-13.4,58.51,58.51,0,0,1-10.76-19.82,81.42,81.42,0,0,1,0-48.34,58.42,58.42,0,0,1,10.76-19.82A52.23,52.23,0,0,1,1114,86a54.35,54.35,0,0,1,23.94-5q19,0,32.19,10.08t15.7,30.47H1171.4Q1168.43,108.2,1160.41,100.62Z" style="fill:#fff"/><rect x="101.49" y="110.19" width="111.2" height="7.94" style="fill:#09c"/><path d="M102.24,99.23a14.93,14.93,0,1,0,14.92,14.92A14.93,14.93,0,0,0,102.24,99.23Z" style="fill:#09c"/><rect x="14.18" y="81.51" width="190.58" height="7.94" style="fill:#09c"/><circle cx="14.92" cy="85.48" r="14.92" transform="translate(-69.76 66.55) rotate(-67.5)" style="fill:#09c"/><polygon points="140.71 85.48 132.77 85.48 132.77 49.26 97.96 49.26 97.96 41.32 140.71 41.32 140.71 85.48" style="fill:#09c"/><path d="M98.71,30.37a14.92,14.92,0,1,0,14.92,14.92A14.92,14.92,0,0,0,98.71,30.37Z" style="fill:#09c"/><rect x="34.02" y="139.12" width="170.73" height="7.94" style="fill:#09c"/><path d="M34.77,128.16a14.92,14.92,0,1,0,14.92,14.92A14.93,14.93,0,0,0,34.77,128.16Z" style="fill:#09c"/><polygon points="172.46 187.24 78.12 187.24 78.12 179.3 164.52 179.3 164.52 143.08 172.46 143.08 172.46 187.24" style="fill:#09c"/><circle cx="78.86" cy="183.27" r="14.92" transform="translate(-120.63 186) rotate(-67.5)" style="fill:#09c"/></svg>