<?xml version="1.0" encoding="UTF-8" standalone="no"?>
<svg
   xmlns:dc="http://purl.org/dc/elements/1.1/"
   xmlns:cc="http://creativecommons.org/ns#"
   xmlns:rdf="http://www.w3.org/1999/02/22-rdf-syntax-ns#"
   xmlns:svg="http://www.w3.org/2000/svg"
   xmlns="http://www.w3.org/2000/svg"
   id="Capa_1"
   data-name="Capa 1"
   viewBox="0 0 595.28 595.28"
   version="1.1">
  <metadata
     id="metadata31">
    <rdf:RDF>
      <cc:Work
         rdf:about="">
        <dc:format>image/svg+xml</dc:format>
        <dc:type
           rdf:resource="http://purl.org/dc/dcmitype/StillImage" />
        <dc:title></dc:title>
      </cc:Work>
    </rdf:RDF>
  </metadata>
  <defs
     id="defs29" />
  <circle
     cx="297.64"
     cy="297.64"
     style="fill:#0099cc;fill-opacity:1"
     id="circle2"
     r="297.68" />
  <path
     d="M86.34,162.17h22V287.68h-22Z"
     style="fill:#ffffff"
     id="path4" />
  <path
     d="M132.4,196.8h19v13.36l.36.35a33.52,33.52,0,0,1,11.95-11.86A31.86,31.86,0,0,1,180,194.34q14.94,0,23.55,7.73t8.62,23.21v62.4h-20V230.55q-.36-10.73-4.57-15.56t-13.19-4.83a21.79,21.79,0,0,0-9.14,1.85,19.79,19.79,0,0,0-6.85,5.09,24,24,0,0,0-4.4,7.65,27.43,27.43,0,0,0-1.58,9.32v53.61h-20Z"
     style="fill:#ffffff"
     id="path6" />
  <path
     d="M318.91,287.68h-19v-12.3h-.35a23.79,23.79,0,0,1-11.78,11.33,39.78,39.78,0,0,1-16.34,3.43,43.46,43.46,0,0,1-18.73-3.78,37.34,37.34,0,0,1-13.27-10.28,44.15,44.15,0,0,1-7.91-15.38,66.64,66.64,0,0,1-2.63-19.07q0-12.31,3.34-21.27a42.52,42.52,0,0,1,8.87-14.77,34.31,34.31,0,0,1,12.66-8.53,40.41,40.41,0,0,1,14.5-2.72,48.41,48.41,0,0,1,8.62.79,38.2,38.2,0,0,1,8.43,2.55,33.21,33.21,0,0,1,7.47,4.48,25,25,0,0,1,5.72,6.42h.35V162.17h20Zm-70-44.47a44.14,44.14,0,0,0,1.49,11.42,31,31,0,0,0,4.57,10,23.19,23.19,0,0,0,7.82,7,22.93,22.93,0,0,0,11.25,2.63,22.48,22.48,0,0,0,11.52-2.81,23.9,23.9,0,0,0,7.91-7.38,33.55,33.55,0,0,0,4.57-10.29,46.2,46.2,0,0,0,1.49-11.69q0-15.12-6.77-23.55t-18.37-8.44a22.71,22.71,0,0,0-11.86,2.9,24.34,24.34,0,0,0-7.91,7.56,31.46,31.46,0,0,0-4.4,10.55A54.84,54.84,0,0,0,249,243.21Z"
     style="fill:#ffffff"
     id="path8" />
  <path
     d="M356.35,247.43a35.09,35.09,0,0,0,1.49,10.19,25.06,25.06,0,0,0,4.49,8.61,21.46,21.46,0,0,0,7.55,5.89,24.88,24.88,0,0,0,10.9,2.2q8.79,0,14.15-3.78t8-11.34h19a37.63,37.63,0,0,1-14.77,22.94,40,40,0,0,1-12.22,6,49,49,0,0,1-14.15,2,48.13,48.13,0,0,1-19-3.51,39.34,39.34,0,0,1-14-9.85,41.63,41.63,0,0,1-8.61-15.12,61.44,61.44,0,0,1-2.9-19.33A54.7,54.7,0,0,1,339.38,224a46.78,46.78,0,0,1,8.8-15.29,41.21,41.21,0,0,1,32.08-14.33,40.69,40.69,0,0,1,19.24,4.48,42.23,42.23,0,0,1,14.15,11.87,48,48,0,0,1,8.18,17,52,52,0,0,1,1.32,19.78Zm46.76-13.19a32.65,32.65,0,0,0-2-9.14,24.59,24.59,0,0,0-4.57-7.65,22.82,22.82,0,0,0-7-5.27,20.79,20.79,0,0,0-9.22-2,24.07,24.07,0,0,0-9.58,1.85,21.93,21.93,0,0,0-7.39,5.09,25.25,25.25,0,0,0-4.92,7.65,26.51,26.51,0,0,0-2,9.49Z"
     style="fill:#ffffff"
     id="path10" />
  <path
     d="M462.88,239.87,431.41,196.8h24.26l19,27.95,19.87-27.95h23.2l-30.94,42,34.81,48.87H497.51l-23-33.57-22.33,33.57H428.6Z"
     style="fill:#ffffff"
     id="path12" />
  <path
     d="M242.35,325.13,284,435.18l43.25-110h17.58V450.65h-12V342.19h-.35L289.64,450.65H278.39L237.08,342.19h-.35V450.65h-12V325.13Z"
     style="fill:#ffffff"
     id="path14" />
  <path
     d="M378.59,325.13v17.76H367.51V325.13Zm0,34.81v90.71H367.51V359.94Z"
     style="fill:#ffffff"
     id="path16" />
  <path
     d="M455.41,372.42q-6.17-5.81-17.23-5.8A27.94,27.94,0,0,0,424.29,370a30.64,30.64,0,0,0-9.93,8.79,39.81,39.81,0,0,0-6,12.39,50.57,50.57,0,0,0,0,28.3,40,40,0,0,0,6,12.4,30.64,30.64,0,0,0,9.93,8.79A28,28,0,0,0,438.18,444a24.56,24.56,0,0,0,9.67-1.94,25.91,25.91,0,0,0,8.08-5.36,28.42,28.42,0,0,0,5.8-8.17,30.27,30.27,0,0,0,2.82-10.38h11.07q-2.28,16.53-12.13,25.76t-25.31,9.23a42.49,42.49,0,0,1-18.37-3.78A38.94,38.94,0,0,1,406.36,439a44.77,44.77,0,0,1-8.26-15.2,62.6,62.6,0,0,1,0-37.09,44.92,44.92,0,0,1,8.26-15.21,40,40,0,0,1,13.45-10.37,41.65,41.65,0,0,1,18.37-3.87q14.58,0,24.7,7.74t12,23.38H463.84Q461.56,378.22,455.41,372.42Z"
     style="fill:#ffffff"
     id="path18" />
  <path
     d="M152.4,378.37a11.26,11.26,0,1,0,10.84,14.25h66.5v-6h-66.5A11.25,11.25,0,0,0,152.4,378.37Z"
     style="fill:#ffffff"
     id="path20" />
  <path
     d="M181.42,365V334.68H160.58a11.26,11.26,0,1,0,0,6h14.86V365H97.37a11.26,11.26,0,1,0,0,6H229.74v-6Z"
     style="fill:#ffffff"
     id="path22" />
  <path
     d="M101.5,400.19a11.26,11.26,0,1,0,10.84,14.26h87v24.32H145.61a11.26,11.26,0,1,0,0,6h59.77V414.45h24.36v-6H112.34A11.25,11.25,0,0,0,101.5,400.19Z"
     style="fill:#ffffff"
     id="path24" />
</svg>
