<svg id="Layer_1" data-name="Layer 1" xmlns="http://www.w3.org/2000/svg" viewBox="0 0 708.66 708.66"><path d="M33.52,134.29H66.76V324.14H33.52Z" style="fill:#fff"/><path d="M103.19,186.67H131.9v20.21l.54.53a50.79,50.79,0,0,1,18.08-17.95A48.2,48.2,0,0,1,175.25,183q22.59,0,35.63,11.7t13,35.1v94.39H193.59V237.72q-.53-16.22-6.91-23.53t-19.94-7.31a33,33,0,0,0-13.83,2.79,30,30,0,0,0-10.37,7.71A36.42,36.42,0,0,0,135.89,229,41.41,41.41,0,0,0,133.5,243v81.1H103.19Z" style="fill:#fff"/><path d="M385.31,324.14H356.59V305.53h-.53a36,36,0,0,1-17.82,17.15,60.3,60.3,0,0,1-24.73,5.19q-16.22,0-28.31-5.72a56.47,56.47,0,0,1-20.08-15.56,66.47,66.47,0,0,1-12-23.26,100.84,100.84,0,0,1-4-28.85q0-18.61,5.05-32.18A64.2,64.2,0,0,1,267.65,200a51.89,51.89,0,0,1,19.14-12.9A60.86,60.86,0,0,1,308.73,183a73.38,73.38,0,0,1,13,1.2A57.17,57.17,0,0,1,334.52,188a50.15,50.15,0,0,1,11.3,6.78,37.54,37.54,0,0,1,8.64,9.71H355v-70.2h30.32ZM279.48,256.87a66.86,66.86,0,0,0,2.26,17.28,47.21,47.21,0,0,0,6.91,15.16A35,35,0,0,0,300.48,300a34.51,34.51,0,0,0,17,4,34,34,0,0,0,17.42-4.26,36,36,0,0,0,12-11.17A50.63,50.63,0,0,0,353.8,273a69.91,69.91,0,0,0,2.26-17.68q0-22.87-10.24-35.64T318,206.88q-10.65,0-18,4.39a36.86,36.86,0,0,0-12,11.43,47.59,47.59,0,0,0-6.65,16A83.08,83.08,0,0,0,279.48,256.87Z" style="fill:#fff"/><path d="M441.94,263.25a52.65,52.65,0,0,0,2.26,15.42,38,38,0,0,0,6.78,13,32.43,32.43,0,0,0,11.44,8.91,37.62,37.62,0,0,0,16.48,3.33q13.29,0,21.41-5.72t12.1-17.15h28.71a57,57,0,0,1-22.33,34.7,60.93,60.93,0,0,1-18.48,9,74.73,74.73,0,0,1-21.41,3.06q-16.22,0-28.71-5.32a59.27,59.27,0,0,1-21.14-14.89,62.93,62.93,0,0,1-13-22.87,92.72,92.72,0,0,1-4.39-29.25,82.84,82.84,0,0,1,4.65-27.79,71,71,0,0,1,13.3-23.13A62.36,62.36,0,0,1,478.11,183a61.6,61.6,0,0,1,29.11,6.78,63.9,63.9,0,0,1,21.41,18A72.67,72.67,0,0,1,541,233.34a78.86,78.86,0,0,1,2,29.91Zm70.73-19.94a48.85,48.85,0,0,0-3.06-13.83,36.66,36.66,0,0,0-6.91-11.56,34.24,34.24,0,0,0-10.63-8,31.36,31.36,0,0,0-14-3.06,36.47,36.47,0,0,0-14.5,2.79,33.13,33.13,0,0,0-11.16,7.71A38.14,38.14,0,0,0,445,229a40.44,40.44,0,0,0-3.06,14.36Z" style="fill:#fff"/><path d="M603.08,251.82l-47.6-65.15h36.7L620.89,229l30.05-42.28H686l-46.8,63.55,52.65,73.92H655.46l-34.83-50.78-33.77,50.78H551.23Z" style="fill:#fff"/><path d="M269.51,380.8l63,166.45L397.94,380.8h26.59V570.65H406.45V406.59h-.54L341,570.65H324L261.53,406.59H261V570.65H242.92V380.8Z" style="fill:#fff"/><path d="M475.58,380.8v26.85H458.83V380.8Zm0,52.64V570.65H458.83V433.44Z" style="fill:#fff"/><path d="M591.78,452.32q-9.31-8.77-26.06-8.77a42.38,42.38,0,0,0-21,5.05,46.11,46.11,0,0,0-15,13.3,60.25,60.25,0,0,0-9,18.74,76.4,76.4,0,0,0,0,42.81,60.2,60.2,0,0,0,9,18.75,46.08,46.08,0,0,0,15,13.29,42.28,42.28,0,0,0,21,5.06,37.22,37.22,0,0,0,14.63-2.93,39.38,39.38,0,0,0,12.23-8.11,43.31,43.31,0,0,0,8.77-12.36,46,46,0,0,0,4.26-15.69h16.75q-3.47,25-18.35,38.95t-38.29,14q-15.69,0-27.79-5.71a59.15,59.15,0,0,1-20.34-15.56,67.92,67.92,0,0,1-12.49-23,94.51,94.51,0,0,1,0-56.11,67.92,67.92,0,0,1,12.49-23,60.72,60.72,0,0,1,20.34-15.68q12.11-5.85,27.79-5.85,22.06,0,37.36,11.7t18.22,35.36H604.54Q601.09,461.1,591.78,452.32Z" style="fill:#fff"/><path d="M133.44,461.32a17,17,0,1,0,16.4,21.56H250.43v-9.06H149.84A17,17,0,0,0,133.44,461.32Z" style="fill:#fff"/><path d="M177.34,441.1V395.24H145.81a17,17,0,1,0,0,9.06h22.48v36.8H50.2a17,17,0,1,0,0,9H250.43v-9Z" style="fill:#fff"/><path d="M56.44,494.34a17,17,0,1,0,16.4,21.55H204.52v36.8H123.17a17,17,0,1,0,0,9.06h90.4V515.89h36.86v-9.05H72.84A17,17,0,0,0,56.44,494.34Z" style="fill:#fff"/></svg>