<?xml version="1.0" encoding="UTF-8" standalone="no"?>
<svg
   xmlns:dc="http://purl.org/dc/elements/1.1/"
   xmlns:cc="http://creativecommons.org/ns#"
   xmlns:rdf="http://www.w3.org/1999/02/22-rdf-syntax-ns#"
   xmlns:svg="http://www.w3.org/2000/svg"
   xmlns="http://www.w3.org/2000/svg"
   xmlns:sodipodi="http://sodipodi.sourceforge.net/DTD/sodipodi-0.dtd"
   xmlns:inkscape="http://www.inkscape.org/namespaces/inkscape"
   width="2048"
   height="1152"
   viewBox="0 0 541.86665 304.80001"
   version="1.1"
   id="svg16"
   inkscape:version="1.0.2 (e86c870879, 2021-01-15)"
   sodipodi:docname="banner_youtube.svg">
  <defs
     id="defs10" />
  <sodipodi:namedview
     id="base"
     pagecolor="#ffffff"
     bordercolor="#666666"
     borderopacity="1.0"
     inkscape:pageopacity="0.0"
     inkscape:pageshadow="2"
     inkscape:zoom="0.49497475"
     inkscape:cx="1055.5334"
     inkscape:cy="589.86717"
     inkscape:document-units="px"
     inkscape:current-layer="layer1"
     inkscape:document-rotation="0"
     showgrid="false"
     units="px"
     inkscape:pagecheckerboard="true"
     borderlayer="true"
     inkscape:window-width="1920"
     inkscape:window-height="1016"
     inkscape:window-x="1080"
     inkscape:window-y="426"
     inkscape:window-maximized="1" />
  <metadata
     id="metadata13">
    <rdf:RDF>
      <cc:Work
         rdf:about="">
        <dc:format>image/svg+xml</dc:format>
        <dc:type
           rdf:resource="http://purl.org/dc/dcmitype/StillImage" />
        <dc:title></dc:title>
      </cc:Work>
    </rdf:RDF>
  </metadata>
  <g
     inkscape:label="Layer 1"
     inkscape:groupmode="layer"
     id="layer1">
    <rect
       style="fill:#ffffff;stroke-width:0.264999"
       id="rect127"
       width="541.86664"
       height="304.79999"
       x="1.4519314e-05"
       y="6.2597655e-06" />
  </g>
  <g
     inkscape:groupmode="layer"
     id="layer2"
     inkscape:label="Layer 2">
    <g
       id="g121"
       transform="matrix(0.11438178,0,0,0.11438178,119.66932,118.48898)">
      <polygon
         points="288.67,208.52 288.67,139.43 514.23,351.81 288.67,564.2 288.67,495.11 441.31,351.81 "
         style="fill:#0099cc"
         id="polygon78" />
      <polygon
         points="288.67,564.2 288.67,495.11 477.77,317.48 514.23,351.81 "
         style="fill:#0071bc"
         id="polygon80" />
      <polygon
         points="250.81,91.75 250.81,22.66 25.25,235.05 250.81,447.43 250.81,378.34 98.17,235.05 "
         style="fill:#0071bc"
         id="polygon82" />
      <polygon
         points="250.81,447.43 250.81,378.34 61.71,200.71 25.25,235.05 "
         style="fill:#0099cc"
         id="polygon84" />
      <circle
         cx="258.09"
         cy="288.06"
         r="47.23"
         style="fill:#0099cc"
         id="circle86" />
      <path
         d="m 532.85,22.8 q 44.25,0 67.95,15.56 23.7,15.56 23.7,51 0,35.69 -24,51.53 -24,15.84 -68.5,15.8 h -14 v 66.24 h -44.53 v -195 a 252.08,252.08 0 0 1 30.83,-4 q 16.27,-1.13 28.55,-1.13 z m 2.85,38 q -4.85,0 -9.56,0.28 -4.71,0.28 -8.13,0.58 v 57.09 h 14 q 23.13,0 34.83,-6.28 11.7,-6.28 11.69,-23.47 0,-8.28 -3,-13.7 A 22.86,22.86 0 0 0 567,66.62 38.87,38.87 0 0 0 553.44,62.05 112.86,112.86 0 0 0 535.7,60.77 Z"
         style="fill:#0099cc"
         id="path88" />
      <path
         d="m 697.29,22.8 q 44.55,0 68.24,15.84 23.69,15.84 23.7,49.25 0,20.85 -9.57,33.83 -9.57,12.98 -27.55,20.41 6,7.44 12.56,17 6.56,9.56 13,20 6.42,10.42 12.42,21.7 6,11.28 11.13,22.12 h -49.79 q -5.45,-9.7 -11,-19.7 -5.55,-10 -11.46,-19.41 -5.88,-9.42 -11.6,-17.85 -5.72,-8.43 -11.51,-15.29 h -22 v 72.23 h -44.52 v -195 a 252.79,252.79 0 0 1 30.12,-4 Q 685,22.8 697.29,22.8 Z m 2.57,38 c -3.24,0 -6.13,0.09 -8.7,0.28 l -7.28,0.58 v 53.64 h 12.56 q 25.11,0 36,-6.28 10.89,-6.28 10.82,-21.42 0,-14.55 -11,-20.69 -11,-6.14 -32.4,-6.14 z"
         style="fill:#0099cc"
         id="path90" />
      <path
         d="m 997.87,123.86 q 0,25.42 -7.57,44.68 -7.57,19.26 -20.7,32.27 a 85,85 0 0 1 -31.26,19.55 113.55,113.55 0 0 1 -39,6.57 110.62,110.62 0 0 1 -38.26,-6.57 88,88 0 0 1 -31.4,-19.55 91.42,91.42 0 0 1 -21.13,-32.27 q -7.71,-19.26 -7.71,-44.68 0,-25.42 8,-44.68 a 95,95 0 0 1 21.55,-32.4 88.73,88.73 0 0 1 31.41,-19.7 108,108 0 0 1 37.54,-6.57 110.89,110.89 0 0 1 38.26,6.57 87.13,87.13 0 0 1 31.4,19.7 92.93,92.93 0 0 1 21.13,32.4 q 7.74,19.28 7.74,44.68 z m -151,0 a 89.56,89.56 0 0 0 3.57,26.27 59.71,59.71 0 0 0 10.28,20.13 45.55,45.55 0 0 0 16.41,13 56.29,56.29 0 0 0 44.39,0 45.34,45.34 0 0 0 16.57,-13 60.24,60.24 0 0 0 10.27,-20.13 89.89,89.89 0 0 0 3.57,-26.27 91.4,91.4 0 0 0 -3.57,-26.41 60.05,60.05 0 0 0 -10.27,-20.26 45.26,45.26 0 0 0 -16.57,-13 52,52 0 0 0 -22.12,-4.56 50.38,50.38 0 0 0 -22.27,4.71 46.92,46.92 0 0 0 -16.41,13.13 59.58,59.58 0 0 0 -10.28,20.27 90,90 0 0 0 -3.6,26.12 z"
         style="fill:#0071bc"
         id="path92" />
      <path
         d="m 758.28,565.9 q -5.35,-16.74 -11.52,-34.37 -6.17,-17.63 -12.28,-35.12 H 609.09 Q 603,514 596.91,531.62 q -6.09,17.62 -11.39,34.28 h -75 q 18.1,-51.9 34.34,-95.9 16.24,-44 31.83,-82.92 15.57,-38.93 30.67,-73.89 15.1,-34.96 31.37,-68.33 h 68.5 q 15.77,33.37 31.18,68.34 15.41,34.97 31,73.89 Q 785,426 801.24,470 q 16.24,44 34.44,95.89 z M 671.46,317.6 q -2.41,7 -7.08,19 -4.67,12 -10.6,27.81 -6,15.78 -13.3,34.75 -7.3,18.97 -14.94,39.84 h 91.79 q -7.37,-20.88 -14.27,-39.91 -6.9,-19.03 -13.12,-34.8 -6.23,-15.78 -10.91,-27.8 -4.68,-12.02 -7.57,-18.89 z"
         style="fill:#0071bc"
         id="path94" />
      <path
         d="m 863.24,244.87 h 72.26 v 321 h -72.26 z"
         style="fill:#0071bc"
         id="path96" />
      <path
         d="m 1071.75,510.77 q 15.29,0 25.25,-2.55 9.96,-2.55 16,-6.94 a 23.35,23.35 0 0 0 8.34,-10.43 37.21,37.21 0 0 0 2.32,-13.43 q 0,-15.75 -14.83,-26.18 -14.83,-10.43 -51,-22.46 -15.77,-5.56 -31.51,-12.74 A 115.94,115.94 0 0 1 998.1,398 86,86 0 0 1 977.72,371.59 q -7.89,-15.51 -7.89,-37.75 0,-22.24 8.35,-40.07 a 85.65,85.65 0 0 1 23.62,-30.34 q 15.29,-12.51 37.07,-19.23 21.78,-6.72 49.09,-6.71 32.43,0 56,6.95 23.57,6.95 38.92,15.28 l -20.84,57 a 198.28,198.28 0 0 0 -29.88,-12.27 q -16.45,-5.32 -39.61,-5.33 -26,0 -37.3,7.18 -11.3,7.18 -11.34,22 0,8.81 4.17,14.82 a 40.45,40.45 0 0 0 11.8,10.89 103.36,103.36 0 0 0 17.62,8.8 q 9.95,3.94 22,8.11 25,9.27 43.54,18.3 18.54,9.03 30.8,21.08 a 76.21,76.21 0 0 1 18.3,28.26 q 6,16.22 6,39.37 0,44.94 -31.49,69.72 -31.49,24.78 -95,24.78 a 264.38,264.38 0 0 1 -38.45,-2.54 251.13,251.13 0 0 1 -30.35,-6.26 171.79,171.79 0 0 1 -22.69,-7.87 168.48,168.48 0 0 1 -16,-7.88 l 20.38,-57.44 q 14.36,7.88 35.44,14.13 21.08,6.25 51.77,6.2 z"
         style="fill:#0071bc"
         id="path98" />
      <path
         d="m 1082.2,105.81 q 12,-20.31 23,-40.6 11,-20.29 20.1,-40.88 h 49.3 q -16.33,32.1 -33.82,62.2 -17.49,30.1 -37,60.49 v 76 H 1059 v -75.4 q -19.5,-30.37 -37.13,-60.77 -17.63,-30.4 -34,-62.49 h 51.88 q 9.15,20.58 19.76,40.88 10.61,20.3 22.69,40.57 z"
         style="fill:#0099cc"
         id="path100" />
    </g>
    <path
       style="fill:#ffffff;stroke-width:2.02349"
       d="m 828.66783,523.16551 c -15.12701,-11.8989 -10.20906,-43.14062 7.49032,-47.58288 11.87505,-2.98045 21.76655,3.71974 25.39731,17.20333 2.7639,10.26435 -0.22885,22.77113 -7.09095,29.63323 -6.19243,6.19243 -18.42323,6.54628 -25.79668,0.74632 z"
       id="path123"
       transform="scale(0.26458333)" />
  </g>
</svg>
