<svg id="Layer_1" data-name="Layer 1" xmlns="http://www.w3.org/2000/svg" viewBox="0 0 800 800"><rect x="420" y="20" width="360" height="360" rx="20"/><rect x="20" y="20" width="360" height="360" rx="20"/><rect x="420" y="420" width="360" height="360" rx="20"/><rect x="20" y="420" width="360" height="360" rx="20"/><path d="M188.06,138V114.69a12,12,0,0,0-4.61-9.44l.44-2.2a.82.82,0,0,0-.18-.69.8.8,0,0,0-.64-.31H163.13a.83.83,0,0,0-.65.31.85.85,0,0,0-.17.69l.44,2.2a12,12,0,0,0-4.61,9.44V138a11.61,11.61,0,0,0-3.32,8.13v6.65a.83.83,0,0,0,.83.83h34.9a.83.83,0,0,0,.83-.83V146.1a11.61,11.61,0,0,0-3.32-8.13Zm-6-34.26-1.33,6.65H165.47l-1.33-6.65Zm-18.94,3.4.85,4.25a.84.84,0,0,0,.82.67h16.62a.82.82,0,0,0,.81-.67l.85-4.25a10.31,10.31,0,0,1,3.33,7.58v21.87a11.58,11.58,0,0,0-6.65-2.1h-.83v-1.57a11.63,11.63,0,0,0,5.81-10.06v-5a.83.83,0,0,0-.83-.83h-1.32a14.35,14.35,0,0,1-9-3.14.84.84,0,0,0-1,0,14.35,14.35,0,0,1-9,3.14H162.3a.84.84,0,0,0-.84.83v5a11.65,11.65,0,0,0,5.82,10.06v1.57h-.83a11.58,11.58,0,0,0-6.65,2.1V114.69a10.34,10.34,0,0,1,3.32-7.58Zm3.33,29h1.1l.22.54a5.72,5.72,0,0,0,3.6,3.35l-.45.45a2.62,2.62,0,0,1-3.64-.21,3.13,3.13,0,0,1-.83-2.13Zm16.62-13.3H163.13v-4.16h.49a16.14,16.14,0,0,0,9.48-3.1,16.14,16.14,0,0,0,9.48,3.1h.49Zm-.15,1.66a10,10,0,0,1-19.64,0Zm-9.82,10a11.46,11.46,0,0,0,4.15-.78v1.46l-.36.92a4.09,4.09,0,0,1-7.58,0l-.37-.92v-1.46a11.52,11.52,0,0,0,4.16.78Zm5.33,2.21.22-.54h1.1v2a3.13,3.13,0,0,1-.83,2.13,2.6,2.6,0,0,1-3.58.26l-.51-.5a5.7,5.7,0,0,0,3.6-3.35Zm-22,9.43a10,10,0,0,1,8.31-9.82v1.85a4.73,4.73,0,0,0,1.28,3.27,4.25,4.25,0,0,0,3.12,1.37,4.34,4.34,0,0,0,2.85-1.08l.23-.22v10.45h-9.14v-5h-1.67v5h-5Zm33.24,5.82h-5v-5h-1.66v5h-9.14V141.46l.28.28a4.26,4.26,0,0,0,2.78,1,4.36,4.36,0,0,0,3.15-1.38,4.77,4.77,0,0,0,1.27-3.27v-1.85a10,10,0,0,1,8.31,9.82Zm0,0" style="fill:#fff"/><path d="M190.55,154h-34.9a1.25,1.25,0,0,1-1.25-1.25V146.1a12,12,0,0,1,3.32-8.3V114.69a12.35,12.35,0,0,1,4.57-9.61l-.39-2a1.26,1.26,0,0,1,1.23-1.5h19.94a1.26,1.26,0,0,1,1.23,1.5l-.39,2a12.35,12.35,0,0,1,4.57,9.61V137.8a12,12,0,0,1,3.32,8.3v6.65A1.25,1.25,0,0,1,190.55,154Zm-27.42-51.53a.42.42,0,0,0-.32.15.39.39,0,0,0-.08.34l.49,2.46-.21.16a11.52,11.52,0,0,0-4.45,9.11v23.45l-.12.13a11.11,11.11,0,0,0-3.2,7.83v6.65a.41.41,0,0,0,.41.41h34.9a.41.41,0,0,0,.41-.41V146.1a11.16,11.16,0,0,0-3.2-7.83l-.12-.13V114.69a11.52,11.52,0,0,0-4.45-9.11l-.21-.16.49-2.45a.4.4,0,0,0-.08-.35.42.42,0,0,0-.32-.15Zm27,49.87h-5.83v-5h-.82v5h-10v-11.9l1,1a3.8,3.8,0,0,0,2.48.92,3.9,3.9,0,0,0,2.84-1.25,4.34,4.34,0,0,0,1.16-3v-2.35l.49.08a10.36,10.36,0,0,1,8.66,10.24Zm-5-.84h4.14v-5.4a9.5,9.5,0,0,0-7.47-9.31v1.34a5.13,5.13,0,0,1-1.39,3.55,4.67,4.67,0,0,1-6.09.7v9.12h8.3v-5h2.51Zm-12.47.84h-10v-5h-.82v5h-5.83V146.1a10.36,10.36,0,0,1,8.66-10.24l.49-.08v2.35a4.34,4.34,0,0,0,1.16,3,3.92,3.92,0,0,0,5.4.26l.92-.93Zm-9.14-.84h8.3v-9.13a4.79,4.79,0,0,1-2.66.82,4.67,4.67,0,0,1-3.43-1.5,5.17,5.17,0,0,1-1.39-3.56v-1.34a9.5,9.5,0,0,0-7.47,9.31v5.4H161v-5h2.51Zm13.41-10a2.87,2.87,0,0,1-1.89-.69l-1-1,.66-.21a5.27,5.27,0,0,0,3.33-3.09l.32-.81h1.81v2.42a3.52,3.52,0,0,1-.94,2.41A3.08,3.08,0,0,1,177,141.53Zm-1.37-1.35,0,0a2.19,2.19,0,0,0,3-.26,2.71,2.71,0,0,0,.71-1.84v-1.58h-.4l-.11.28A6.1,6.1,0,0,1,175.59,140.18Zm-6.39,1.35a3.06,3.06,0,0,1-2.23-1,3.52,3.52,0,0,1-.94-2.41v-2.42h1.8l.33.81a5.26,5.26,0,0,0,3.34,3.09l.66.21-.95,1A3.06,3.06,0,0,1,169.2,141.53Zm-2.33-5v1.58a2.71,2.71,0,0,0,.71,1.84,2.2,2.2,0,0,0,3,.21,6.1,6.1,0,0,1-3.23-3.35l-.11-.28ZM173.1,139a4.48,4.48,0,0,1-4.18-2.83l-.4-1.08v-2.06l.58.22a11,11,0,0,0,8,0l.58-.22,0,2.22-.36.92A4.48,4.48,0,0,1,173.1,139Zm-3.73-4,.33.85a3.66,3.66,0,0,0,6.8,0l.33-.85v-.77a11.89,11.89,0,0,1-7.46,0Zm17.45,2.32-.67-.46a11.06,11.06,0,0,0-6.4-2H178.5v-2.23l.21-.12a11.28,11.28,0,0,0,5.6-9.7v-5a.41.41,0,0,0-.41-.41h-1.32a14.82,14.82,0,0,1-9.22-3.23.42.42,0,0,0-.52,0,14.82,14.82,0,0,1-9.22,3.23H162.3a.41.41,0,0,0-.41.41v5a11.26,11.26,0,0,0,5.6,9.7l.21.12v2.23h-1.25a11.11,11.11,0,0,0-6.41,2l-.66.46V114.69a10.81,10.81,0,0,1,3.46-7.89l.55-.51,1,5a.4.4,0,0,0,.4.32h16.62a.41.41,0,0,0,.4-.32l1-5,.55.51a10.81,10.81,0,0,1,3.46,7.89ZM179.34,134h.41a11.89,11.89,0,0,1,6.23,1.75v-21.1a10,10,0,0,0-2.65-6.73l-.69,3.48a1.26,1.26,0,0,1-1.23,1H164.79a1.26,1.26,0,0,1-1.23-1l-.69-3.48a10,10,0,0,0-2.65,6.73v21.1a11.89,11.89,0,0,1,6.23-1.75h.41v-.91a12.12,12.12,0,0,1-5.82-10.3v-5a1.26,1.26,0,0,1,1.26-1.25h1.32a14,14,0,0,0,8.7-3,1.23,1.23,0,0,1,1.56,0,14,14,0,0,0,8.7,3h1.32a1.26,1.26,0,0,1,1.26,1.25v5a12.12,12.12,0,0,1-5.82,10.3Zm-6.24-.82a10.36,10.36,0,0,1-10.24-8.66l-.08-.49h20.64l-.08.49A10.36,10.36,0,0,1,173.1,133.22Zm-9.31-8.31a9.54,9.54,0,0,0,18.62,0Zm19.7-1.66H162.71v-5h.91a15.7,15.7,0,0,0,9.23-3l.25-.19.25.19a15.7,15.7,0,0,0,9.23,3h.91Zm-19.94-.84h19.1v-3.32h-.07a16.52,16.52,0,0,1-9.48-3,16.52,16.52,0,0,1-9.48,3h-.07Zm17.52-11.63H165.12l-1.49-7.49h18.94Zm-15.26-.84h14.57l1.17-5.81h-16.9Z" style="fill:#fff"/><path d="M172.27,109.53h1.66v-1.66h1.66v-1.66h-1.66v-1.66h-1.66v1.66h-1.66v1.66h1.66Zm0,0" style="fill:#fff"/><path d="M174.35,110h-2.5v-1.66h-1.66v-2.5h1.66v-1.66h2.5v1.66H176v2.5h-1.66Zm-1.66-.84h.82v-1.66h1.66v-.82h-1.66V105h-.82v1.66H171v.82h1.66Z" style="fill:#fff"/><path d="M231.64,115.9a1.08,1.08,0,1,0-1.08-1.08A1.08,1.08,0,0,0,231.64,115.9Z" style="fill:#fff"/><path d="M231.64,116.32a1.5,1.5,0,1,1,1.5-1.5A1.5,1.5,0,0,1,231.64,116.32Zm0-2.16a.66.66,0,1,0,.66.66A.66.66,0,0,0,231.64,114.16Z" style="fill:#fff"/><path d="M241.39,134h-3.25v-3.25a1.09,1.09,0,0,0-2.17,0V134h-3.25a1.08,1.08,0,1,0,0,2.16H236v3.25a1.09,1.09,0,0,0,2.17,0v-3.25h3.25a1.08,1.08,0,1,0,0-2.16Z" style="fill:#fff"/><path d="M237.06,140.91a1.52,1.52,0,0,1-1.51-1.51v-2.83h-2.83a1.5,1.5,0,1,1,0-3h2.83v-2.83a1.51,1.51,0,1,1,3,0v2.83h2.83a1.5,1.5,0,0,1,0,3h-2.83v2.83A1.51,1.51,0,0,1,237.06,140.91Zm-4.34-6.5a.66.66,0,1,0,0,1.32h3.67v3.67a.67.67,0,0,0,1.33,0v-3.67h3.67a.66.66,0,0,0,0-1.32h-3.67v-3.67a.67.67,0,0,0-1.33,0v3.67Z" style="fill:#fff"/><path d="M258.78,131.79l-4.4,2.54v-9.4a5.42,5.42,0,0,0-1.08-3.25l-5.42-7.22v-3.08a3.25,3.25,0,0,0,2.17-3.06v-5a3.26,3.26,0,0,0-3.25-3.25H227.31a3.26,3.26,0,0,0-3.25,3.25v5a3.25,3.25,0,0,0,2.17,3.06v3.08l-5.42,7.22a5.42,5.42,0,0,0-1.08,3.25v21a5.42,5.42,0,0,0,5.41,5.41h17.41a8.65,8.65,0,0,0,11.76,3.07l13.13-7.58a8.66,8.66,0,1,0-8.66-15Zm-16.36,10.86H221.89V126.73h30.33v8.85l-6.57,3.79A8.62,8.62,0,0,0,242.42,142.65Zm-16.19-39.31a1.08,1.08,0,0,1,1.08-1.08H246.8a1.08,1.08,0,0,1,1.08,1.08v5a1.08,1.08,0,0,1-1.08,1.08H227.31a1.08,1.08,0,0,1-1.08-1.08Zm2,12.13a1.1,1.1,0,0,0,.21-.65v-3.25h17.33v2.17H236a1.08,1.08,0,1,0,0,2.16h10.29l5.31,7.08a3.25,3.25,0,0,1,.62,1.59H221.92a3.25,3.25,0,0,1,.62-1.59Zm-6.29,30.43v-1.09h19.68a8.74,8.74,0,0,0,.05,4.34H225.14A3.26,3.26,0,0,1,221.89,145.9Zm31.34,6.6a6.5,6.5,0,0,1-6.5-11.25l5.88-3.4,6.5,11.26Zm13.13-7.58L261,148l-6.5-11.25,5.37-3.1a6.5,6.5,0,1,1,6.5,11.25Z" style="fill:#fff"/><path d="M250,156a9.12,9.12,0,0,1-7.71-4.22H225.14a5.84,5.84,0,0,1-5.83-5.83v-21a5.86,5.86,0,0,1,1.16-3.5l5.33-7.11v-2.65a3.69,3.69,0,0,1-2.16-3.35v-5a3.67,3.67,0,0,1,3.67-3.67H246.8a3.67,3.67,0,0,1,3.67,3.67v5a3.69,3.69,0,0,1-2.16,3.35v2.65l5.33,7.11a5.86,5.86,0,0,1,1.16,3.5v8.67l3.77-2.17A9.09,9.09,0,0,1,271,134.75a9.1,9.1,0,0,1-3.32,12.41l-13.13,7.58A9,9,0,0,1,250,156Zm-22.71-55.44a2.83,2.83,0,0,0-2.83,2.83v5a2.84,2.84,0,0,0,1.89,2.67l.28.1v3.51l-5.5,7.33a5,5,0,0,0-1,3v21a5,5,0,0,0,5,5h17.65l.12.21A8.26,8.26,0,0,0,254.1,154l13.13-7.58A8.24,8.24,0,0,0,259,132.15l-5,2.91V124.93a5,5,0,0,0-1-3l-5.5-7.33v-3.51l.28-.1a2.84,2.84,0,0,0,1.89-2.67v-5a2.83,2.83,0,0,0-2.83-2.83ZM250,153.79a6.92,6.92,0,0,1-3.47-12.91l6.25-3.6,6.91,12-6.24,3.61A6.92,6.92,0,0,1,250,153.79Zm2.47-15.36-5.52,3.18A6.08,6.08,0,0,0,253,152.14l5.52-3.19Zm-10.29,11.14h-17a3.68,3.68,0,0,1-3.67-3.67v-1.52H242.1l-.12.53A8.14,8.14,0,0,0,242,149Zm-19.86-4.34v.67a2.83,2.83,0,0,0,2.83,2.83h16a9.16,9.16,0,0,1,0-3.5Zm38.52,3.37-6.92-12,5.74-3.32a6.92,6.92,0,0,1,6.92,12Zm-5.77-11.68,6.08,10.53,5-2.89A6.08,6.08,0,1,0,260.07,134Zm-12.39,6.15h-21.2V126.31h31.17v9.51l-6.78,3.92a8.14,8.14,0,0,0-3.07,3.12Zm-20.36-.84h19.87a9,9,0,0,1,3.26-3.22l6.36-3.67v-8.19H222.31ZM252.66,125H221.45l.05-.47a3.64,3.64,0,0,1,.71-1.8l5.63-7.5a.73.73,0,0,0,.13-.4v-3.67h18.17v3H236a.66.66,0,1,0,0,1.32h10.5l5.43,7.24a3.64,3.64,0,0,1,.71,1.8Zm-30.23-.85h29.25a2.77,2.77,0,0,0-.45-.91l-5.18-6.91H236a1.5,1.5,0,1,1,0-3h9.33V112H228.81v2.83a1.48,1.48,0,0,1-.3.9l-5.63,7.51A2.77,2.77,0,0,0,222.43,124.14Zm24.37-14.31H227.31a1.52,1.52,0,0,1-1.51-1.51v-5a1.51,1.51,0,0,1,1.51-1.5H246.8a1.51,1.51,0,0,1,1.51,1.5v5A1.52,1.52,0,0,1,246.8,109.83Zm-19.49-7.15a.65.65,0,0,0-.66.66v5a.65.65,0,0,0,.66.66H246.8a.65.65,0,0,0,.66-.66v-5a.65.65,0,0,0-.66-.66Z" style="fill:#fff"/><path d="M321.81,101.53H307.29a10.72,10.72,0,0,0-10.71,10.71v20.57a10.73,10.73,0,0,0,7.19,10.12v2.14a1.54,1.54,0,0,0,3.08,0v-1.55h3.08V145a1.54,1.54,0,0,0,1.54,1.54H313v6.05a1.54,1.54,0,1,0,3.08,0v-6.05h1.54a1.54,1.54,0,0,0,1.54-1.54v-1.44h3.08v1.55a1.54,1.54,0,1,0,3.08,0v-2.14a10.73,10.73,0,0,0,7.19-10.12V112.24a10.72,10.72,0,0,0-10.71-10.71ZM330,133.15a7.93,7.93,0,0,1-7.92,7.92h-4.34a1.59,1.59,0,0,0-1.59,1.6v1.49H313v-1.49a1.6,1.6,0,0,0-1.6-1.6H307a7.93,7.93,0,0,1-7.92-7.92V111.8a7.93,7.93,0,0,1,7.92-7.93h15.06A7.93,7.93,0,0,1,330,111.8Zm-.56-.34" style="fill:#fff"/><path d="M314.55,154.52a2,2,0,0,1-2-2v-5.63h-1.12a2,2,0,0,1-2-2v-1h-2.24v1.13a2,2,0,0,1-3.92,0v-1.84a11.15,11.15,0,0,1-7.19-10.42V112.24a11.14,11.14,0,0,1,11.13-11.13h14.52a11.15,11.15,0,0,1,11.13,11.13v20.57a11.15,11.15,0,0,1-7.19,10.41v1.85a2,2,0,1,1-3.92,0v-1.13h-2.24v1a2,2,0,0,1-2,2h-1.12v5.63A2,2,0,0,1,314.55,154.52Zm-8.12-11.44.44,0h3.48V145a1.12,1.12,0,0,0,1.12,1.12h2v6.48a1.12,1.12,0,0,0,2.24,0v-6.48h2a1.12,1.12,0,0,0,1.12-1.12v-1.85h3.49l.43,0v2a1.12,1.12,0,0,0,2.24,0v-2.44l.28-.1a10.31,10.31,0,0,0,6.91-9.72V112.24A10.31,10.31,0,0,0,321.81,102H307.29A10.3,10.3,0,0,0,297,112.24v20.57a10.31,10.31,0,0,0,6.91,9.73l.28.09v2.44a1.12,1.12,0,0,0,2.24,0Zm10.14,1.5h-4v-1.91a1.18,1.18,0,0,0-1.18-1.18H307a8.36,8.36,0,0,1-8.35-8.34V111.8a8.36,8.36,0,0,1,8.35-8.35h15.06a8.36,8.36,0,0,1,8.34,8.35v21.35a8.35,8.35,0,0,1-8.34,8.34h-4.34a1.18,1.18,0,0,0-1.17,1.18Zm-3.2-.84h2.36v-1.07a2,2,0,0,1,2-2h4.34a7.52,7.52,0,0,0,7.5-7.5V111.8a7.51,7.51,0,0,0-7.5-7.5H307a7.5,7.5,0,0,0-7.5,7.5v21.35a7.51,7.51,0,0,0,7.5,7.5h4.33a2,2,0,0,1,2,2Z" style="fill:#fff"/><path d="M323.79,114.36H305.31a1.54,1.54,0,0,0-1.54,1.54v16.23a1.54,1.54,0,0,0,1.54,1.54h18.48a1.54,1.54,0,0,0,1.54-1.54V115.9a1.54,1.54,0,0,0-1.54-1.54Zm-.67,17H306V116.7h17.14Zm-.88-.74" style="fill:#fff"/><path d="M323.79,134.09H305.31a2,2,0,0,1-2-2V115.9a2,2,0,0,1,2-2h18.48a2,2,0,0,1,2,2v16.23A2,2,0,0,1,323.79,134.09Zm-18.48-19.31a1.12,1.12,0,0,0-1.12,1.12v16.23a1.12,1.12,0,0,0,1.12,1.12h18.48a1.12,1.12,0,0,0,1.11-1.12V115.9a1.12,1.12,0,0,0-1.11-1.12Zm18.23,17h-18V116.28h18Zm-17.14-.84h16.29V117.12H306.4Z" style="fill:#fff"/><path d="M314.55,128.84a3.87,3.87,0,0,0,3.87-3.87c0-.32,0-1.29-1.31-3.41a15.11,15.11,0,0,0-.88-1.29,1.85,1.85,0,0,0-3.36,0,13.09,13.09,0,0,0-.89,1.29c-1.3,2.12-1.3,3.09-1.3,3.41a3.87,3.87,0,0,0,3.87,3.87Zm0-7.28a13.76,13.76,0,0,1,1.87,4.06,1.88,1.88,0,0,1-3.75,0,13.84,13.84,0,0,1,1.88-4.06Zm0,1.71" style="fill:#fff"/><path d="M314.55,129.26a4.3,4.3,0,0,1-4.3-4.29c0-.35,0-1.41,1.38-3.63a15.33,15.33,0,0,1,.9-1.33,2.26,2.26,0,0,1,4,0,16,16,0,0,1,.91,1.33c1.37,2.22,1.37,3.28,1.37,3.63A4.3,4.3,0,0,1,314.55,129.26Zm0-9.65a1.78,1.78,0,0,0-1.35.92,13.53,13.53,0,0,0-.86,1.25c-1.24,2-1.24,2.9-1.24,3.19a3.45,3.45,0,1,0,6.9,0c0-.29,0-1.17-1.25-3.19a14.19,14.19,0,0,0-.85-1.25C315.56,120.1,315.19,119.61,314.55,119.61Zm0,8.28a2.31,2.31,0,0,1-2.3-2.27c.1-1.14,1.39-3.37,1.94-4.28l.36-.59.36.59a14.91,14.91,0,0,1,1.93,4.24A2.31,2.31,0,0,1,314.55,127.89Zm0-5.5a11.21,11.21,0,0,0-1.46,3.27,1.46,1.46,0,0,0,2.91,0A11.66,11.66,0,0,0,314.55,122.39Z" style="fill:#fff"/><path d="M154.71,186.92a2.7,2.7,0,0,0,1.91-4.62L145.8,171.48a2.71,2.71,0,0,0-1.91-.8H119.53a2.71,2.71,0,0,0,0,5.42h23.23l10,10a2.69,2.69,0,0,0,1.91.79Zm0,0" style="fill:#fff"/><path d="M204.3,211.51a7.53,7.53,0,0,0-6.52,3.76l-26.33-15.36a7.54,7.54,0,0,0-14.81.19L130.14,220a7.54,7.54,0,0,0-13,.68L90.91,209.74a7.56,7.56,0,1,0-.62,5.19l26.19,10.92a7.55,7.55,0,0,0,14.76-.42l26.5-19.87a7.53,7.53,0,0,0,12.84-.33l26.34,15.36a7.55,7.55,0,1,0,7.38-9.08Zm-118.21,0A2.53,2.53,0,1,1,83.56,209a2.52,2.52,0,0,1,2.53,2.53Zm37.73,15.08a2.52,2.52,0,0,1-2.52-2.52h0a2.52,2.52,0,1,1,2.52,2.53ZM164.06,204a2.52,2.52,0,1,1,2.51-2.52,2.51,2.51,0,0,1-2.51,2.52Zm40.24,17.61a2.52,2.52,0,1,1,2.52-2.52,2.52,2.52,0,0,1-2.52,2.52Zm0,0" style="fill:#fff"/><path d="M119.85,133.3a22.91,22.91,0,1,0-38,24.64,36.18,36.18,0,0,0,3,2.88A19.33,19.33,0,0,0,88.45,163a22.87,22.87,0,0,0,21,0,18.76,18.76,0,0,0,4.12-2.55,15.5,15.5,0,0,0,2.46-2.54A22.9,22.9,0,0,0,119.85,133.3Zm-38.74,9.36A17.85,17.85,0,0,1,96.39,125v16.59L84.66,153.33A17.77,17.77,0,0,1,81.11,142.66Zm24.64,16.47a17.82,17.82,0,0,1-17.49-2.2L100,145.21h16.58A17.84,17.84,0,0,1,105.75,159.13Zm-4.27-19V125a17.86,17.86,0,0,1,15.09,15.09Z" style="fill:#fff"/><path d="M319.89,207.64H309.64a2.56,2.56,0,0,0-2.56,2.56v15.38h-2.57V174.31a2.56,2.56,0,0,0-2.56-2.56H291.7a2.57,2.57,0,0,0-2.57,2.56v51.27h-2.56V164.06A2.56,2.56,0,0,0,284,161.5H273.76a2.57,2.57,0,0,0-2.57,2.56v61.52h-2.56V182a2.56,2.56,0,0,0-2.56-2.56H255.81a2.56,2.56,0,0,0-2.56,2.56v43.58h-2.56V210.2a2.56,2.56,0,0,0-2.57-2.56H237.87a2.56,2.56,0,0,0-2.56,2.56v17.94a2.57,2.57,0,0,0,2.56,2.57h82a2.57,2.57,0,0,0,2.57-2.57V210.2A2.56,2.56,0,0,0,319.89,207.64Zm-74.33,17.94h-5.13V212.76h5.13Zm17.94,0h-5.12v-41h5.12Zm17.95,0h-5.13v-59h5.13Zm17.94,0h-5.13v-48.7h5.13Zm17.94,0H312.2V212.76h5.13Z" style="fill:#fff"/><polygon points="178.4 273.19 171.67 293.38 228.33 293.38 221.6 273.19 178.4 273.19" style="fill:none"/><path d="M53.62,253a10.1,10.1,0,0,0,10.09,10.1H336.29A10.1,10.1,0,0,0,346.38,253v-3.92H53.62Z" style="fill:none"/><rect x="149.52" y="303.48" width="100.96" height="5.05" style="fill:none"/><path d="M336.29,81.38H63.71a20.2,20.2,0,0,0-20.19,20.19V253a20.2,20.2,0,0,0,20.19,20.19h104L161,293.38H144.47a5,5,0,0,0-5,5.05v10.1H89a5,5,0,1,0,0,10.09h222.1a5,5,0,1,0,0-10.09H260.57v-10.1a5,5,0,0,0-5-5.05H239l-6.74-20.19H336.29A20.2,20.2,0,0,0,356.48,253V101.57A20.2,20.2,0,0,0,336.29,81.38Zm-85.81,222.1v5h-101v-5Zm-78.81-10.1,6.73-20.19h43.2l6.73,20.19Zm174.71-67V253a10.1,10.1,0,0,1-10.09,10.1H63.71A10.1,10.1,0,0,1,53.62,253V101.57a10.11,10.11,0,0,1,10.09-10.1H336.29a10.11,10.11,0,0,1,10.09,10.1Z" style="fill:#fff"/><rect x="53.62" y="242.35" width="292.77" height="10.1" style="fill:#fff"/><path d="M242.75,203.4a2.52,2.52,0,0,1-2.52-2.52v-19.6H177.36a2.52,2.52,0,0,1-2.52-2.52V166a2.52,2.52,0,1,1,5,0v10.26h62.87a2.52,2.52,0,0,1,2.53,2.52v22.12A2.52,2.52,0,0,1,242.75,203.4Z" style="fill:#fff"/><path d="M314.77,203.69a2.53,2.53,0,0,1-2.53-2.53V166a2.53,2.53,0,0,1,5.05,0v35.18A2.52,2.52,0,0,1,314.77,203.69Z" style="fill:#fff"/><path d="M260.94,176.3a2.52,2.52,0,0,1-2.52-2.52v-7.37H237.06a2.53,2.53,0,0,1-2.53-2.53v-5.95a2.53,2.53,0,1,1,5.05,0v3.43h21.36a2.52,2.52,0,0,1,2.52,2.52v9.9A2.52,2.52,0,0,1,260.94,176.3Z" style="fill:#fff"/><rect x="581.09" y="116.71" width="172.24" height="166.58" rx="19.71" style="fill:#fff"/><rect x="516.22" y="192.31" width="76.21" height="5.44" style="fill:#fff"/><path d="M516.73,184.8A10.23,10.23,0,1,0,527,195,10.23,10.23,0,0,0,516.73,184.8Z" style="fill:#fff"/><rect x="456.38" y="172.65" width="130.61" height="5.44" style="fill:#fff"/><path d="M456.89,165.15a10.23,10.23,0,1,0,10.23,10.22A10.23,10.23,0,0,0,456.89,165.15Z" style="fill:#fff"/><polygon points="543.11 175.37 537.66 175.37 537.66 150.55 513.81 150.55 513.81 145.11 543.11 145.11 543.11 175.37" style="fill:#fff"/><circle cx="514.32" cy="147.83" r="10.23" transform="translate(-20.21 122.12) rotate(-13.28)" style="fill:#fff"/><rect x="469.98" y="212.13" width="117.01" height="5.44" style="fill:#fff"/><path d="M470.49,204.63a10.23,10.23,0,1,0,10.23,10.23A10.23,10.23,0,0,0,470.49,204.63Z" style="fill:#fff"/><polygon points="564.86 245.12 500.21 245.12 500.21 239.68 559.42 239.68 559.42 214.85 564.86 214.85 564.86 245.12" style="fill:#fff"/><circle cx="500.72" cy="242.4" r="10.23" transform="translate(-42.3 121.53) rotate(-13.28)" style="fill:#fff"/><path d="M179.06,491.19A87.95,87.95,0,1,0,267,579.14,88,88,0,0,0,179.06,491.19Zm0,8.37a79.53,79.53,0,0,1,65,33.8l-10.47,10.47a16.56,16.56,0,0,0-8.45-2.38,16.64,16.64,0,0,0-14.37,25.21l-27.43,27.42a16.22,16.22,0,0,0-16.91,0l-19-19.05a16.69,16.69,0,1,0-30.53-12.64H101.3A79.7,79.7,0,0,1,179.06,499.56Zm37.7,58.64a8.38,8.38,0,1,1,8.37,8.38A8.38,8.38,0,0,1,216.76,558.2Zm-41.88,41.88a8.38,8.38,0,1,1-8.38,8.38A8.38,8.38,0,0,1,174.88,600.08ZM133,575a8.38,8.38,0,1,1,8.38-8.37A8.37,8.37,0,0,1,133,575Zm46.07,83.76a79.5,79.5,0,0,1-79.12-88h16.9A16.54,16.54,0,0,0,141.45,581l19.05,19a16.76,16.76,0,1,0,28.75,0l27.43-27.42a16.45,16.45,0,0,0,8.45,2.37,16.64,16.64,0,0,0,14.38-25.21l9.13-9.12a79.49,79.49,0,0,1-69.58,118.09Z" style="fill:#fff"/><path d="M283.77,482.81A16.76,16.76,0,0,0,267,499.56a16.57,16.57,0,0,0,2.38,8.46L262,515.38a104.71,104.71,0,0,0-146.47-19.57c-45.33,34.51-54.7,99.5-20.92,145.37A104.71,104.71,0,0,0,235.89,667l12.64,12.64,5.92,5.92L287.86,719c8.7,8.7,23.12,8.87,31.66,0a22,22,0,0,0-.3-30.75L285.5,654.53l-5.92-5.93L266.94,636a104.35,104.35,0,0,0,0-113.65l8.38-8.37a16.56,16.56,0,0,0,8.45,2.38,16.77,16.77,0,0,0,16.16-12.57h21.53a4.19,4.19,0,0,0,4.19-4.19h0a4.19,4.19,0,0,0-4.19-4.18H299.93A16.77,16.77,0,0,0,283.77,482.81Zm29.52,211.35a13.58,13.58,0,0,1-19,19.43l-.22-.22-33.72-33.71,19.21-19.21Zm-51.23-51.23,11.6,11.6-19.21,19.2-11.59-11.59c.59-.45,1.14-.95,1.72-1.41s1.26-1,1.88-1.55c.92-.77,1.83-1.55,2.71-2.35.46-.42.9-.84,1.34-1.26,1.72-1.6,3.38-3.27,5-5l1.26-1.34c.8-.89,1.58-1.8,2.35-2.71.52-.62,1-1.25,1.54-1.88S261.61,643.52,262.06,642.93Zm-4.64-7.86c-1.32,1.85-2.68,3.65-4.12,5.39-.42.51-.87,1-1.3,1.49q-1.92,2.24-4,4.34c-.59.62-1.2,1.22-1.81,1.82-1.4,1.36-2.85,2.69-4.34,4-.5.42-1,.87-1.5,1.3-1.74,1.43-3.54,2.79-5.38,4.11a96.47,96.47,0,1,1,22.42-22.42Zm26.35-127.13a8.38,8.38,0,1,1,8.37-8.38A8.38,8.38,0,0,1,283.77,507.94Z" style="fill:#fff"/><rect x="561.49" y="457.85" width="77.02" height="284.29" rx="20" style="fill:#fff"/><rect x="561.49" y="457.85" width="77.02" height="284.29" rx="20" transform="translate(1200) rotate(90)" style="fill:#fff"/></svg>