<svg id="Layer_1" data-name="Layer 1" xmlns="http://www.w3.org/2000/svg" viewBox="0 0 708.66 708.66"><circle cx="354.33" cy="354.33" r="354.33" style="fill:#09c"/><path d="M317.33,162.06A155.41,155.41,0,1,0,472.75,317.47,155.41,155.41,0,0,0,317.33,162.06Zm0,14.8a140.42,140.42,0,0,1,114.83,59.72l-18.5,18.5a29.29,29.29,0,0,0-14.92-4.22,29.61,29.61,0,0,0-29.6,29.61,29.27,29.27,0,0,0,4.2,14.94l-48.46,48.46a28.69,28.69,0,0,0-29.89,0l-33.66-33.66a29.24,29.24,0,0,0,4.2-14.94,29.54,29.54,0,0,0-58.15-7.4H179.92A140.8,140.8,0,0,1,317.33,176.86Zm66.61,103.61a14.8,14.8,0,1,1,14.8,14.8A14.8,14.8,0,0,1,383.94,280.47Zm-74,74a14.81,14.81,0,1,1-14.8,14.8A14.81,14.81,0,0,1,309.93,354.47Zm-74-44.4a14.8,14.8,0,1,1,14.8-14.8A14.8,14.8,0,0,1,235.93,310.07Zm81.4,148A140.53,140.53,0,0,1,177.51,302.67h29.87a29.59,29.59,0,0,0,28.55,22.2,29.24,29.24,0,0,0,14.94-4.2l33.66,33.66a29.27,29.27,0,0,0-4.2,14.94,29.61,29.61,0,1,0,59.21,0,29.27,29.27,0,0,0-4.2-14.94l48.46-48.46a29.24,29.24,0,0,0,14.94,4.2,29.61,29.61,0,0,0,29.61-29.6,29.31,29.31,0,0,0-4.2-15l16.13-16.12A140.48,140.48,0,0,1,317.33,458.08Z" style="fill:#fff"/><path d="M502.35,147.25a29.61,29.61,0,0,0-29.6,29.61A29.17,29.17,0,0,0,477,191.8l-13,13C401.88,124,286.15,108.55,205.12,170.23c-80.1,61-96.66,175.81-37,256.88a185,185,0,0,0,249.6,45.64l22.33,22.34,10.47,10.46,59,59c15.38,15.39,40.86,15.68,55.94,0a38.8,38.8,0,0,0-.53-54.33l-59.57-59.58L495,440.22l-22.33-22.34a184.43,184.43,0,0,0,0-200.82l14.8-14.8a29.24,29.24,0,0,0,14.93,4.2,29.59,29.59,0,0,0,28.55-22.2H569a7.4,7.4,0,0,0,7.4-7.4h0a7.4,7.4,0,0,0-7.4-7.4H530.9A29.6,29.6,0,0,0,502.35,147.25Zm52.18,373.47A24,24,0,0,1,521,555.05l-.38-.39L461,495.09,495,461.15ZM464,430.2l20.49,20.48-33.94,33.94-20.49-20.48c1.05-.8,2-1.68,3.05-2.5s2.22-1.81,3.32-2.74c1.62-1.36,3.22-2.73,4.79-4.15.81-.74,1.58-1.48,2.37-2.22q4.55-4.26,8.81-8.81c.74-.79,1.48-1.56,2.22-2.37,1.42-1.57,2.79-3.17,4.16-4.79q1.38-1.63,2.73-3.32C462.32,432.22,463.2,431.24,464,430.2Zm-8.21-13.89c-2.33,3.25-4.74,6.44-7.28,9.51-.74.9-1.53,1.76-2.29,2.65q-3.41,3.94-7,7.66-1.57,1.64-3.2,3.21-3.71,3.62-7.67,7c-.88.74-1.75,1.55-2.64,2.3-3.07,2.54-6.26,4.94-9.52,7.27a170.46,170.46,0,1,1,39.62-39.61Zm46.56-224.65a14.8,14.8,0,1,1,14.8-14.8A14.8,14.8,0,0,1,502.35,191.66Z" style="fill:#fff"/></svg>