<svg id="Layer_1" data-name="Layer 1" xmlns="http://www.w3.org/2000/svg" viewBox="0 0 708.66 708.66"><circle cx="354.33" cy="354.33" r="354.33" style="fill:#09c"/><line x1="681.51" y1="348.76" x2="681.51" y2="335.19" style="fill:none;stroke:#09c;stroke-miterlimit:10;stroke-width:5px"/><line x1="640.68" y1="348.76" x2="640.68" y2="335.19" style="fill:none;stroke:#09c;stroke-miterlimit:10;stroke-width:5px"/><path d="M411,458.53l-57.7-40.39V435H335.76V368.52a13.89,13.89,0,0,0-13.85-13.85h-180A13.89,13.89,0,0,0,128,368.52v180a13.89,13.89,0,0,0,13.85,13.85h180a13.89,13.89,0,0,0,13.85-13.85V482.09h17.53v16.83Z" style="fill:#fff;stroke:#09c;stroke-miterlimit:10;stroke-width:8px"/><path d="M397.14,220.62h-30a13.85,13.85,0,0,0-10.86,5.29H335.76V159.46a13.89,13.89,0,0,0-13.85-13.85h-180A13.89,13.89,0,0,0,128,159.46v180a13.89,13.89,0,0,0,13.85,13.85h66.45v14.08a39.36,39.36,0,1,0,47.12,0V353.33h66.45a13.89,13.89,0,0,0,13.85-13.85V273h20.52a13.85,13.85,0,0,0,10.86,5.29h30A13.89,13.89,0,0,0,411,264.47v-30A13.89,13.89,0,0,0,397.14,220.62Z" style="fill:#fff;stroke:#09c;stroke-miterlimit:10;stroke-width:8px"/><path d="M643.92,344.88l-127.3-127.3a13.89,13.89,0,0,0-19.58,0l-47.33,47.33,8.73,8.73a9.66,9.66,0,0,1,10.31,2.14L496,303a9.63,9.63,0,0,1,0,13.59l-27.2,27.21a9.64,9.64,0,0,1-13.6,0L428,316.58a9.63,9.63,0,0,1-2.15-10.3l-8.73-8.73-47.33,47.33a13.89,13.89,0,0,0,0,19.58L420.29,415l13-13-11.9-11.91,69.36-12.24-12.24,69.36-11.9-11.9-13,13L497,491.76a13.89,13.89,0,0,0,19.58,0l127.3-127.3A13.88,13.88,0,0,0,643.92,344.88Z" style="fill:#fff;stroke:#fff;stroke-miterlimit:10;stroke-width:8px"/></svg>